<?xml version="1.0" encoding="UTF-8"?>
<svg id="a" data-name="Layer 2" xmlns="http://www.w3.org/2000/svg" viewBox="0 0 1080 1080">
  <rect y="0" width="1080" height="1080" fill="#e6e6e6"/>
  <g>
    <path d="m724.04,1080c-8.97-3.33-18.73-3.92-28.04-5.02-37.66-4.45-74.81-14.71-113.13-11.94-22.58,1.63-45.01,5.24-67.59,7.09-10.01.82-15.55-6.07-19.28-14.93-3.83-9.08-6.81-21.37-19.74-19.19-16.34,2.75-20.94,16.4-22.6,31.1-.24,2.13-.64,4.24-.96,6.35-1.83-1.25-3.9-2.25-5.45-3.78-24.28-23.89-22.15-56.92,11.26-71.11,50.6-21.49,78.54-61.88,106.4-104.62,11.25-17.27,26.82-31.76,49.3-21.03,23.21,11.09,18.87,34.03,14.59,52.86-11.45,50.4,2.75,100.49,35.03,114.21,29.11,12.37,60.8,14.15,91.04,21.88,14.44,3.69,28.17,8.98,39.92,18.13h56.86c-16.65-9.04-33.2-18.29-50.24-26.52-27.66-13.37-58.05-17.19-87.7-23.86-45.04-10.14-65.54-55.77-56.56-106,11.8-65.96,58.76-101.6,106.52-138.21,41.84-32.07,79.14-67.48,78.39-125.94-.47-36.85-16.57-67.42-42.03-93.05-38.35-38.6-33.46-81.04-13.94-126.24,19.43-44.98,33.79-90.86,16.02-140.61-7.06-19.77-23.1-29.51-38.41-40.78-26.68-19.63-27.42-38.51,1.78-54,35.82-18.99,52.18-47.33,59.45-86.04,9.06-48.31,49.51-63.66,96.73-40.94,33.2,15.97,60.08,42.51,94.81,55.72,21.38,8.13,42.55,8.03,63.52,0v-31.51c-62.45,29.87-106.09-8.76-150.33-44.79-26.85-21.87-56.04-31.62-91.19-23.88-11.85,2.61-33.2,6.37-33.33-13.11C805.03.91,823.44,2.27,837.84,0h-76.17c2,32.98,16.87,63.04,22.2,95.28,7.4,44.77-15.5,74.85-47.99,100.24-11.06,8.65-22.35,17.22-34.4,24.35-12.84,7.59-29.66,16.11-38.62-1.5-9.25-18.16,9.1-26.14,21.82-33.01,24.54-13.25,55.18-17.95,63.22-51.91,8.1-34.2-4.43-65.61-10.95-97.93C734.58,23.78,733.04,11.86,731.22,0h-29.17c4.07,12.36,8.22,24.69,12.11,37.1,10.31,32.85,24.19,66.48-3.1,97.41-18.27,20.7-45.06,32.71-61.26,55.72-22.2,31.54-45.28,61.54-82.8,76.51-8.69,3.47-21.07,6.97-20.37,18.45.76,12.45,13.18,17.59,23.07,23.02,30.42,16.68,64.98,11.61,97.32,18.21,16.56,3.38,33.78,7.73,39.84,26.08,4.62,13.99-4.18,25.45-14.69,32.58-20.74,14.06-42.3,27.12-64.46,38.82-53.57,28.28-101.09,62.82-127.77,119.49-7.15,15.18-12.87,31.91-3.27,48.22,5.27,8.95,15.04,12.33,25.4,10.95,19.05-2.54,34.4-13.4,50.08-23.4,32.53-20.74,64.24-45.65,103.94-48.02,42.4-2.54,73.87,27.04,107.7,47.19,28.66,17.07,46.07,43.58,40.64,78.44-10.01,64.23-49.98,108.29-102.11,142.58-16.49,10.85-35.54,20.84-55.42,10.32-18.33-9.71-15.75-29.08-12.19-45.31,7.6-34.72-5.22-55.37-35.2-74.29-38.49-24.29-39.23-44.7-7.9-72.13,22.72-19.9,49.14-40.65,80.54-35.13,48.16,8.47,73.2,46,73.84,98.14.08,6.71-1.4,15.68,7.38,18.66,2.78.94,8.19-1.68,10.5-4.33,9.19-10.57,12.81-23.57,13.74-37.33,2.59-38.39-24.21-55.65-52.42-70.62-22.1-11.72-42.13-31.81-69.7-27.26-36.43,6.02-61.36,35.34-93.75,50.12-28.23,12.88-32.28,30.68-12.66,54.9,8.85,10.92,19.8,20.68,31.34,28.77,44.82,31.4,50.08,53.36,20.6,93.52-15.27,20.81-35.08,39.46-45.48,62.43-23.83,52.66-56.8,91.45-113.4,111.96-60.42,21.89-77.7,77.47-42.03,118.24h303.94Zm-175.2-513.01c-7.91,7.8-21.33,18.84-30.04,7.45-12.52-16.36,4.09-29.68,14.2-40.58,43.06-46.41,97.79-77.86,148.7-114.24,20.13-14.38,38.84-31.71,44.79-57.05,5.45-23.23-13.62-30.75-29.57-39.48-4.75-2.6-12.84-3.39-12-9.8.3-2.33,10.3-4.72,15.91-4.81,30.53-.47,50.07,17.95,50.07,55-2.71,35.67-30.85,64.38-63.89,87.03-50.09,34.34-95.12,74.02-138.17,116.48Zm85.02-43.34c-1.53.48-3.18.59-4.78.87.57-1.7.8-3.63,1.75-5.07,20.42-30.72,54.1-45.28,82.31-66.23,42.18-31.32,67.36-91.32,49.38-126.75-13.46-26.54-36.2-37.54-69.4-37.48-16.74-.2-36.24,6.74-56.04,12.39-8.4,2.4-19.67,7.43-24.38-2.37-4.59-9.56,6-15.27,13.48-19.26,58.42-31.12,147.92-22.87,166.31,53.06,10.93,45.14-9.52,82.92-36.92,116.46-31.63,38.73-74.93,59.76-121.72,74.37Z" fill="#0071bc"/>
    <path d="m670.41,0h-21.94c13.73,16.65,24.4,34.71,27.18,57,3.46,27.75-2.55,53.35-22.72,72.24-35.8,33.54-58.44,78.95-98.51,108.24-29.99,21.92-62.27,16.22-92.64,2.13-36.09-16.75-70.29-13.66-104.94,2.32-2.16,1-4.67,1.23-7.02,1.82.63-2.43.93-5.01,1.94-7.26,12.06-26.83,59.39-37.36,95.55-21.84,36.22,15.54,72.48,35.8,110.64,4.31,26.03-21.48,41.22-51.52,61.44-77.6,15.37-19.82,36.71-36.53,37.84-64.02C658.72,40.82,639.13,17.07,610.04,0h-146.03c13.8,4.77,27.54,9.71,41.55,13.7,26.55,7.56,52.93-4.23,79.44-1.85,25.9,2.33,45.05,16.12,57.5,38.54,7.64,13.77,7.4,28.06-1.87,41.66-3.64,5.34-8.39,8.63-14.57,7.7-7.4-1.11-10.42-7.29-12.04-13.86-10.96-44.54-23.76-53.93-67.95-41.68-28.86,8-50.25-7.06-73.51-16.53-50.55-20.58-100.49,11.65-100.72,65.93-.06,13.09-.91,26.22-2.13,39.27-.85,9.09-2.63,19.53-15.1,17.77-11.4-1.61-15.6-12.15-15.25-21.67C341.3,76.35,351.39,15.2,413.16,0h-45.88c-31.88,40.33-45.53,86.61-40.53,137.82,1.87,19.14,12.41,37.04,35.01,33.72,24.47-3.59,21.24-26.97,23.83-44.54,4.69-31.82.15-67.79,36.14-85.62,23.77-11.78,46.46-3.69,65.75,11.1,16.64,12.75,32.65,17.5,54.21,15.24,47.65-5.01,64.74,18.68,53.18,68.82-10.55,45.78-47.71,85.17-80.5,84.46-24.48-.53-42.45-17.75-63.81-26.29-41.65-16.66-75.21,1.38-106.8,26.46-47.98,38.11-99.37,68.8-162.23,74.28-5.84.51-12.77-.36-14.1-6.82-1.49-7.23,5.73-9.24,11.06-11.12,29.31-10.36,60.02-16.85,87.4-32.51,41-23.46,45.58-59.23,38.67-102.01C296.41,92.5,307.84,44.5,333.2,0h-24.12c-19.43,48.5-16.56,99.91-18.99,150.68-1.41,29.56-7.8,57.95-29.28,80-44.43,45.61-111.22,43.69-160.58-3.23-6.71-6.38-15.54-19.27-25.39-11.02-9.96,8.34-.02,18.95,6.05,27.33,4.14,5.72,8.23,11.56,13.02,16.72,25.42,27.39,48.18,59.47,92.45,55.19,26.87-2.6,47.84-19.24,71.02-30.49,50.16-24.35,100.78,7.06,100.78,62.98,0,69.15-70.84,117.91-142.25,102.98-49.41-10.34-93.18-35.69-142.23-45.96-27.61-5.78-60.85,13.09-67.73,40.69-5.76,23.12,10.33,42.68,39.92,50.67,41.97,11.33,81.1,27.25,108.75,64.05,29.06,38.69,39.45,40.01,80.52,11.42,34.12-23.75,69.2-34.56,110.35-19.54,37.63,13.73,53.26,3.64,53.62-36.35.46-51.32,24.11-84.29,70.96-102.47,40.3-15.64,61.4-53.68,51.28-94.84-5.4-21.96-23-30.56-43.56-25.87-18.34,4.18-11.62,20.6-9.04,32.62,6.99,32.64,4.54,61.8-25.43,82.98-18.96,13.4-36.9,27.86-45.89,50.46-6.85,17.23-14.15,34.38-27.16,47.98-28.69,30.02-67.47,24.97-103.49,28.6-76.76,7.73-140.2-28.6-203.84-63.46-12.39-6.79-27.21-16.51-17.28-32.88,9.41-15.53,25.82-10.32,38.71-2.58,42.98,25.8,84.72,52.97,135.58,62.9,43.44,8.49,87.44-2.23,107.6-29.75,38.8-52.95,48.87-112.87,46.77-176.65-1.29-39.13,21.21-56.79,58.32-44.35,59.45,19.93,113.66,18.55,158.59-31.16,23.26-25.74,41.44-56.14,69.89-77.11,24.85-18.32,36.43-41.72,31.6-73.1C689.02,43.58,679.13,22.03,670.41,0Z" fill="#0071bc"/>
    <path d="m971.35,1019.57c-52.39-46.57-80.06-93.9-36.82-157.39,23.36-34.3,75.63-46,127.05-28.65,6.02,2.03,12.23,3.49,18.41,5.06v-57.64c-25.24,4.64-50.57,8.84-75.65,14.22-65.94,14.16-116.45,62.64-121.74,126.95-4.35,52.85,30.69,87.14,72.58,114.43,11.68,7.61,28.57,15.25,21.64,33.78-2.16,5.79-6.15,8.56-10.88,9.68h35.81c5.98-27.35-12.58-44.58-30.41-60.43Z" fill="#0071bc"/>
    <path d="m746.12,993.35c51.7,17.85,94.49,52.35,143.51,75.05,8.73,4.04,17.58,7.82,26.44,11.6h36.52c-1.88-.28-3.73-.63-5.51-.98-44.1-8.68-79.04-32.67-109.85-64.83-49.4-51.58-38.68-164.75,19.67-205.53,32.41-22.65,63.93-46.68,94.85-71.33,9.11-7.27,17.59-21.88,6.89-30.86-11.09-9.31-15.74,7.09-22.34,13.85-12.03,12.32-22.99,26.32-36.88,36.09-53.6,37.73-101.89,78.89-115.15,147.97-2.34,12.2-7.66,24.88-23.18,20.74-12.02-3.2-12.71-15.45-10.54-26,11.87-57.73,50.25-96.58,93.91-131.82,24.9-20.1,55.17-35.52,67.07-68,9.81-26.78-4.14-52.85-5.38-79.42-1.03-21.98,3.2-46.28-11.13-64.86-10.68-13.85-29.36-21.66-39.54-35.74-27.33-37.81-17.99-80.43-7.72-120.8,11.3-44.45,21.39-87.8,10.74-134.11-9.95-43.25-9.35-86.6,10.54-127.78,3.46-7.16,8.85-13.82,17.87-11.92,9.32,1.97,10.53,10.25,10.49,18.38-.16,33.41-10.18,65.97-6.75,99.91,3.22,31.87,24.5,55.31,48.76,49.55,42.15-10.02,88.67,11.94,103.69,52.25,14.9,40.01,6.58,83.71,15.64,124.93,4.27,19.43,7.14,39.41,21.28,54.5v-63.44c-7.84-21.32-9.73-43.97-10.18-66.23-1.44-70.1-33.17-115.33-100.89-136.61-43.35-13.62-58.08-42.77-55.38-101.49.96-20.88,7.83-45.51-20.31-51.33-26.01-5.37-32.97,18.78-40.66,37.28-10.87,26.14-27.37,47.74-46.58,68.33-19.48,20.88,1.06,36.07,11.86,51.31,35.8,50.53,30.46,105.3,6.99,155.7-27.1,58.22-15.41,101.45,26.67,146.21,42.61,45.32,47.94,116.35,15.72,159.73-25.16,33.87-64.41,53.24-93.75,83.12-34.95,35.59-76.08,68.15-82.48,121.97-4.57,38.46,24.71,54.09,55.12,64.59Z" fill="#0071bc"/>
    <path d="m665.53,359.72c-.55-2.78-5.72-5.95-9.24-6.64-29.54-5.8-60.28-4.78-88.76-16.95-10.14-4.33-15.25,3.09-16.06,12.19-3.94,44.17-23.52,75.72-67.36,90.86-25.61,8.84-51.06,21.71-57.08,51.3-4.21,20.69-2.61,42.63-3,64.03-.5,27.32-14.73,40.33-41.06,35.25-23.29-4.49-46.1-13.62-69.47-15.12-50.26-3.23-80.86,30.84-108.93,65.74-13.29,16.53-11,35.14,5.84,49.57,11.12,9.53,23.03,6.06,33.59-1.49,12.62-9.01,23.28-22.02,37.09-27.88,71.75-30.45,141.41-15.87,205.42,20.48,57,32.37,69.42,76.44,43.46,119.91-24.03,40.24-65.33,51.83-105.79,65.41-54.09,18.16-101.53,43.49-116.16,105.91-7.89,33.67-24.85,61.99-62.42,67.85-33.96,5.29-55.47-17.23-76.75-39.44-17.99-18.77-34.67-39.93-60.12-49.26-44.41-16.29-77.38,5.94-108.74,32.56v38.77c9.3-13.57,17.85-27.76,31.85-37.41,41.49-28.63,76.92-21.84,108.24,18.8,21.23,27.56,44.04,53.91,71.29,75.86h101.93c-15.1-63.54,13.33-112.6,56.65-155.38,27.66-27.32,66.01-37.37,99.52-55.27,44.44-23.74,81.92-54.22,91.84-107.32,7.28-38.94-20.34-57.89-46.55-77.54-18.97-14.22-43.2-24.12-47.38-51.77-.66-4.4,1.73-9.25,2.7-13.9,2.19,1.05,4.95,1.58,6.46,3.25,3.44,3.81,6.1,8.32,9.38,12.3,20.69,25.09,47.16,43.62,72.15,63.86,34.17,27.67,33.12,61.11,5.83,109.18-35.71,62.91-95.13,94.21-154.42,126.67-43.59,23.87-84.16,91.19-60.2,145.92h33.83c-30.49-63.48,3.43-130.3,66.07-151.58,27.57-9.36,57.91-14.05,76.79-40.33,21.98-30.6,33.84-67.51,60.25-95.47,12.51-13.24,25.87-27.38,23.71-47.7-2.86-26.85-26.38-37.71-43.85-52.89-32.31-28.08-71.61-51.34-85.17-94.44-18.27-58.09,12.66-102.45,49.23-143,34.56-38.33,83.36-54.8,126.14-80.51,5.22-3.14,10.58-7.67,9.26-14.36Zm-175.6,126.28c-17.67,31.99-23.93,66.85-29.27,102.53-6.33,42.29-37.72,62.01-79.38,44.89-55.21-22.68-101.13-16.42-142.17,27-4.64,4.91-14.31,12.08-18.33,4.97-6.94-12.29,3.83-22.72,11.51-31.59,39.17-45.26,85.29-52.71,140.11-29.21,21.06,9.03,50.43,21.6,63.3-13.12,6.57-17.74,5.9-38.17,8.51-57.38,1.11-22.99-.33-47.09,18.2-64.83,7.85-7.52,18.43-14.8,28.54-8.27,9.92,6.41,3.33,17.13-1.02,25.02Z" fill="#0071bc"/>
    <path d="m506.14,759.32c-7.25-6.98-16.68,11.81-24.23,19.88-16.24,17.38-35.06,27.44-58.51,17.72-21.99-9.11-43.34-14.47-66.64-5.47-47.96,18.52-89.04,51.81-141.67,61.12-45,7.97-96.65-16.79-110.65-60.28-10.98-34.09-2.04-70.47-10.58-105.02-13.66-55.24-39.33-101.12-93.86-124.89v25.65c41.22,20.22,59.95,57.73,70.31,99.41,14.02,56.39,22.09,114.26,3.8,170.99-11.23,34.8-40.75,52.88-74.1,64.26v22.12c76.6-57.17,136.98-38.39,193.72,27.01,29.96,34.53,61.18,34.66,78-7.72,25.16-63.4,64.15-109.46,131.51-128.76,32.25-9.24,68.51-9.83,92.94-37.96,9.58-11.03,21.48-27,9.98-38.09Zm-121.64,63.7c-44.28,23.27-78.68,60.5-121.49,85.71-15.28,9-32.14,13.43-52.12,13.53-28.8-1.1-56.55-12.13-81.94-29.18-5.43-3.65-12.95-9.13-8.56-17.45,5.81-11,16.58-9.78,25.77-6.01,68.35,28.06,122.05-4.31,175.23-41.13,17.92-12.41,36.51-24.91,60.33-22.93,5.05.42,9.63,2.72,9.6,6.8-.03,3.66-3.44,8.9-6.81,10.67Z" fill="#0071bc"/>
    <path d="m457.5,696.13c-51.66-22.04-106.26-14.08-159.94-9.91-10.93.85-22.41,10.97-20.27,24.16,1.42,8.73,13.23,7.38,20.16,5.71,38.89-9.43,78.03-15.29,117.93-8.98,11.83,1.87,30.03.48,29.99,17.32-.04,17.53-17.3,16.2-29.68,15.11-36.61-3.24-72.69-7.24-108.92,5.32-75.97,26.32-120.64,6.88-139.52-71.28-22.3-92.32-78.77-140.4-167.26-157.52v14.73c.6.09,1.2.21,1.77.4,74.58,23.76,134.12,111.87,137.91,202.37,1.21,28.94,6.66,57.87,34.53,73.82,31.89,18.25,61.77,4.46,88.68-12.64,49.86-31.68,98.25-61.71,161.72-35.78,17.2,7.03,39.39-1.11,48.68-21.2,8-17.3.19-34.79-15.78-41.6Z" fill="#0071bc"/>
    <path d="m320.83,313.05c-13.59-19.81-42.09-22.24-66.91-4.64-20.24,14.36-37.14,34.24-64.42,36.01-42.79,2.78-70.13-23.62-97.2-50.92-36.81-37.11-47.56-39.31-92.3-16.44v36.13c42.43-21.06,73.97,5.95,107.78,25.69,60.04,35.04,98.74,30.87,157.34-14.39,8.18-6.32,19.31-15.16,27.72-5.57,10.18,11.61,1.48,24.8-7.53,33.67-40.45,39.79-89.6,40.81-141.41,30.92-34.77-6.64-62.55-30.06-96.45-38.35-17.4-4.26-32.63,1.67-47.45,9.44v33.19c16.55-13.48,35.01-24.46,56.72-17.8,34.67,10.64,67.66,27,102.54,36.69,48.35,13.44,97.71,23.75,143.91-9.08,25.95-18.45,34.91-59.43,17.67-84.55Z" fill="#0071bc"/>
    <path d="m1080,566.06c-6.91-7.53-14.22-14.8-19.62-23.29-28.47-44.68-29.31-96.25-34.37-146.53-4.6-45.77-42.88-77.55-87.2-70.97-37.68,5.59-65.51,43.02-67.11,87.89-1.02,28.64-7.15,57.74,11,83.51,9.78,13.88,30.48,14.27,39.05,29.74,12.44,22.46,4.7,47.06,6.29,70.65,2.08,30.95,10.55,58.56,37.62,76.76,39.9,26.83,66.57,23.26,114.35-15.59v-92.17Zm-45.64,109.12c-29.15,7.87-51.62-5.04-68.86-27.68-15.34-20.14-17.94-44.22-18.16-68.67-.11-27.66,8.07-57.94-17.81-78.81-14.73-11.88-35.93-14.44-42.53-37.41-13.42-46.66,11.6-103.07,52.73-114.41,32.2-8.88,62.01,17.15,72.44,62,10.88,46.75,5.83,97.1,30.83,140.59,12.05,20.96,28.6,39.92,29.41,65.59.88,28.03-8.63,50.85-38.04,58.79Z" fill="#0071bc"/>
    <path d="m220.44,0h-45.49c-8.72,16.41-18.41,32.43-25.41,49.55-11.91,29.12-2.88,52.43,23.28,69.77,10,6.62,22.26,12.41,22.51,26.86.06,3.59-4.07,9.54-7.4,10.51-15.4,4.48-27.94-3.24-38.19-13.29C108.34,102.79,101.6,52.51,129.9,1.97,130.26,1.34,130.55.68,130.82,0h-20.5c-20.56,44.1-10.6,115.47,22.42,150.91,16.3,17.49,35.57,31.57,60.89,20.93,21.71-9.12,22.89-30.37,21.99-50.12C213.77,80.93,211.03,40.23,220.44,0Z" fill="#0071bc"/>
    <path d="m1080,169.23c-34.46,17.84-63.01,2.61-92.18-17.51-12.08-8.33-28.23-33.26-43.07-8.57-11.55,19.2-5.32,43.67,10.68,62.04,20.91,24.02,52.42,30.34,78.54,45.69,17.72,10.41,32.4,23.97,46.02,38.87v-120.52Z" fill="#0071bc"/>
    <path d="m277.44,0h-21.21c-1.13,3.28-2.3,6.54-3.14,9.89-11.67,46.23-2.16,93.9-9.5,140.48-5.02,31.82-29.27,61.97-58.22,67.05-26.25,4.6-48.58-6.37-62.84-28.06C84.71,131.86,66.56,69.12,76.37,0h-22.38c-.76,3.89-1.71,7.8-1.43,11.62,5.09,68.99,25.87,134.66,61.96,191.9,29.23,46.36,82.3,60.3,124.97,8.39,28.01-34.07,31.47-74.48,31.81-116.22C271.56,63.72,267.2,31.29,277.44,0Z" fill="#0071bc"/>
    <path d="m891.61,1019.34c-53.81-65.93-49.88-137.48,9.58-198.05,49.41-50.33,114.84-61.82,178.81-77.31v-46.47c-65.08,21.02-115.81,66.4-171.68,102.94-94.45,61.78-96.18,178.37-4.11,240.99,3.03,2.06,6.46,3.53,9.71,5.27-2.11-2.73-4.16-5.51-6.35-8.18-5.28-6.43-10.69-12.76-15.95-19.21Z" fill="#0071bc"/>
    <path d="m976.04,978.98c32.48,25.82,61.56,54.79,56.83,101.02h29.47c-6.87-48.34-34.33-83.62-72.36-113.02-19.44-15.04-32.24-35.4-24.89-61.29,7.36-25.93,27.19-36.4,53.29-35.1,23.74,1.18,41.82,15.88,61.62,26.44v-25.97c-10.87-3.96-21.96-7.5-32.32-12.52-35.65-17.3-75.66-8.21-93.86,22.06-19.35,32.19-8.57,73.9,22.21,98.38Z" fill="#0071bc"/>
    <path d="m41.73,699.14c-5.26-28-16.13-54.1-41.73-70.34v37.96c21.6,28.51,24.19,62.35,24.71,96.58.36,23.65-6.6,44.48-24.71,60.21v57.67c16.08-6.08,26.83-18.41,34.2-33.26,23.99-48.32,16.93-98.88,7.54-148.82Z" fill="#0071bc"/>
    <path d="m58.43,126.15C48.35,84.07,23.88,45.33,27.7,0H11.59c-4.3,31.37,9.74,58.98,19.32,87.41,16.14,47.89,5.67,89.49-30.92,120.74v32.62c39.57-8.54,69.49-68.46,58.43-114.63Z" fill="#0071bc"/>
    <path d="m36.6,1080c6.89-28.36,21.91-49.82,54.84-48.37,28.78,1.26,41.3,28.6,59.67,46.1.75.72,1.45,1.48,2.14,2.27h19.18c-8.42-10.52-16.66-21.21-25.66-31.2-18.59-20.65-33.3-48.05-64.82-50.34-41.96-3.05-59.87,39.73-69.73,81.55h24.39Z" fill="#0071bc"/>
    <path d="m1080,21.9c-13.45,9.14-25.39,20.73-41.88,24.92-35.11,8.93-60.43-8.92-84.59-30.39C947.19,10.8,940.61,5.43,934.09,0h-56.1c25.77,4,47.14,18.19,67.71,34.08,40.67,31.41,81.6,61,134.31,29.19V21.9Z" fill="#0071bc"/>
    <path d="m983.21,0c10.43,10.85,21.58,20.96,37.51,22.13C1038.19,23.42,1048.67,12.08,1058.36,0h-75.15Z" fill="#0071bc"/>
    <path d="m10.61,100.74c-1.76-13.42-3.23-27.36-10.61-39.29v105.88c.13-.13.25-.27.34-.42,12.29-20.65,13.26-43.38,10.27-66.17Z" fill="#0071bc"/>
    <path d="m118.37,1080c-6.19-9.84-14.27-18.07-26.3-18.52-12.41-.46-19.69,7.84-24.02,18.52h50.32Z" fill="#0071bc"/>
    <path d="m734.98,687.83c-2.52,20.25-.91,47.59-29.09,58.54-18.11,7.03-14.04-10.13-15.43-19.44-3.72-24.88-18.39-42.07-37.86-56.27-7.16-5.22-18.86-9.19-16.83-19.56,2.77-14.24,16.33-20.36,28.62-24.82,43.58-15.81,70.59,6.49,70.59,61.56Z" fill="#0071bc"/>
    <path d="m443.09,348.73c.85,22.05-5.61,39.5-29.29,45.72-14.64,3.84-17.4-6.65-17.17-16.75.67-29.55,2.24-59.1,4.21-88.6.49-7.25,2.69-16.24,12.09-16.7,13.47-.66,16.67,11.34,20.27,20.72,6.82,17.77,10.11,36.45,9.89,55.62Z" fill="#0071bc"/>
    <path d="m505.77,193.05c-24.69-15.38-55.72-29.94-80.56-51.61-22.11-19.29-15.36-65.86,6.85-75.04,21.39-8.84,35.06,8.24,49.75,19.04,16.97,12.48,34.48,17.42,55.85,13.83,29.93-5.03,37.68,5.61,28.29,38.95-7.73,27.44-23.82,48.05-60.18,54.83Z" fill="#0071bc"/>
    <path d="m549.01,1037.67c-22.37-1.26-25.13-12.87-16.43-29.57,11.9-22.85,24.29-45.46,37.1-67.81,3.86-6.75,9.17-15.16,18.27-13.06,10.69,2.47,14.47,13.42,13.88,22.42-1.55,23.76.28,48.81-15.53,69.32-9.44,12.25-22.94,17.29-37.29,18.69Z" fill="#0071bc"/>
    <path d="m975.91,571.32c.72-33.61,6.13-68.2-20.45-96.01-11.8-12.35-32.77-13.55-39.82-31.02-8.96-22.21,7.03-52.15,32.97-56.35,28.63-4.64,31.05,22.03,36.44,40.27,13.83,46.79,9.13,98.05,33.41,142.46,8.7,15.92,21.22,30.09,24.13,48.63,1.67,10.64-1.54,21.05-13,24.59-20.44,6.33-32.92-5.79-42.99-21.25-10.18-15.63-11.64-33.28-10.69-51.34Z" fill="#0071bc"/>
  </g>
</svg>