<?xml version="1.0" encoding="UTF-8"?>
<svg id="Layer_2" data-name="Layer 2" xmlns="http://www.w3.org/2000/svg" viewBox="0 0 1080 1080">
  <defs>
    <style>
      .cls-1 {
        fill: #615f88;
      }
    </style>
  </defs>
  <path class="cls-1" d="m424.36,502.18s0,198.59,19.43,236.24c19.43,37.65,35.22,77.73,74.09,81.38,38.87,3.64,103.24-13.36,100.81-115.39-2.43-102.03,2.43-402.03,23.08-450.61,20.65-48.58,14.58-170.04-91.09-193.12-105.67-23.08-184.62,70.45-189.48,330.37-4.86,259.92,20.65,501.63,102.03,585.43,53.58,55.18,127.33,61.99,180.28,14.91,27.46-24.42,56.92-78.8,58.99-115.72,6.07-108.1-29.47-272.07,13.36-351.02,10.93-13.36-5.47-39.32-25.05-24.29-19.59,15.03-48.43,83.2-32.03,235.02,16.4,151.82-18.22,238.67-102.63,238.67s-131.78-119.03-148.18-332.8c-16.4-213.77-1.82-500.71,74.7-529.86,76.52-29.15,137.55,14.58,131.18,75.61-6.38,61.03-50.1,224.09-32.79,461.85,17.31,237.76-112.96,114.78-117.51,15.49s-4.55-157.59-4.55-157.59c0,0-12.64-27.33-34.62-4.55Z"/>
</svg>