<?xml version="1.0" encoding="UTF-8"?>
<svg id="a" data-name="Layer 2" xmlns="http://www.w3.org/2000/svg" viewBox="0 0 1080 1080">
  <path d="m549.57,948.97c-100.55-.74-130.87-109.9-142.55-197.76-25.6-146.27-54.75-492.69,55.19-593.45,117.47-85.59,205.16,51.66,165.7,168.07-22.64,90.59-25.31,266.83-18.03,319.69,7.93,74.45,1.81,125.2-67.35,135.52-75.71,4.71-87.8-48.83-98.01-132.47-5.42-39.44-7.09-79.74-4.99-119.79.51-9.65,8.74-17.08,18.39-16.56,9.65.51,17.07,8.74,16.56,18.39-1.57,54.79.92,187.73,36.16,211.03,16.12,8.72,41.2,5.74,54.77-6.51,14.35-12.96,13.3-36.06,9.56-87.06-3.93-72.48-8.07-79.73,1.73-217.08,2.02-84.41,44.2-155.27,14.92-220.22-20.41-47.29-67.8-58.06-108.28-25.1-91.6,93.35-66.67,425.26-41.88,559.35,4.69,26.16,10.16,52.46,16.17,78.22,19.76,102.4,130.1,120.69,175.76,34.16,17.85-25.45,10.52-98.41,2.16-176.52-8.51-52.45-2.1-115.57,28.37-164.8,11.75-19.67,41.52-2.63,30.3,17.52-30.54,49.11-30.23,105.13-22.22,159.45,18.44,143.11,9.89,235.85-122.42,255.92Z" fill="#ccc"/>
</svg>