<?xml version="1.0" encoding="UTF-8"?>
<svg id="a" data-name="Layer 2" xmlns="http://www.w3.org/2000/svg" viewBox="0 0 1080 1080">
  <path d="m679.6,371.08c-8.18-1.11-14.03-5.9-18.06-13.06-2.42-4.28-5.3-8.32-8.65-11.88-11.03-11.74-23.4-21.09-40.38-22.32-3.61-.25-7.32.21-10.85-.94h-12.65c-.41.34-.87.54-1.42.52-16.38-.7-30.11,5.57-42.49,15.79-6.22,5.13-13.09,9.38-20.87,11.95-4.76,1.57-9.57,2.5-14.39.58-6.02-2.38-11.99-2.23-17.97-.13-4.33,1.53-8.51,1.1-12.86-.2-10.71-3.2-19.05-10.2-27.8-16.61-8.16-5.98-17.01-10.06-27.29-10.95-3.62-.32-7.32.2-10.85-.95h-12.65c-1.6,1.05-3.4.33-5.1.53-6.05.71-12.29.46-18.02,2.92-15.38,6.62-27.9,16.7-36.25,31.36-4.29,7.55-10.53,12.28-18.88,13.65-5.84.96-8.46,4.04-9.2,9.46v6.32c.5,5.6,2.7,9.84,8.42,11.92,2.87,1.05,4.53,3.76,5.86,6.5,1.54,3.17,2.54,6.54,3.79,9.8,6.08,15.88,13.64,30.77,27.56,41.46,9.21,7.07,18.86,12.97,30.96,13.6,3.25.18,6.62-.14,9.8.95h14.76c1.24-.97,2.7-.38,4.06-.52,7.25-.78,14.54-1.09,21.32-4.46,18.26-9.08,31.29-22.95,38.53-41.97,5.75-15.12,8.74-31.03,12.84-46.63,1.97-7.51,5.08-10.78,10.27-10.92,5.1-.14,8.25,3.06,10.29,10.78,2.65,10,4.99,20.08,7.6,30.1,3.07,11.73,6.46,23.34,13.94,33.25,11.16,14.8,24.35,26.51,43.64,29.2,3.77.52,7.63.23,11.36,1.16h14.76c1.24-.97,2.7-.39,4.05-.52,7.73-.75,15.53-1.02,22.68-4.69,14.79-7.58,26.2-18.56,33.9-33.31,3.98-7.61,7.43-15.45,10.18-23.6,1.36-4.03,2.84-8.46,7.14-9.9,5.69-1.9,7.83-5.79,8.45-11.16v-8.43c-1.01-5.26-4.03-7.92-9.51-8.67Zm-274.56,91.83c-35.54-.15-64.84-30.4-64.62-66.71.23-35.93,30.05-65.28,66.16-65.13,36.46-.47,66.54,31.27,65.63,67.72-.87,35.39-30.45,64.26-67.17,64.11Zm190.87-.01c-36.36.01-65.85-29.5-65.89-65.91-.02-36.38,29.44-65.89,65.84-65.92,36.5-.03,65.81,29.31,65.81,65.85s-29.37,65.97-65.77,65.97Z" fill="#c69c6d"/>
</svg>