<?xml version="1.0" encoding="UTF-8"?>
<svg id="a" data-name="Layer 2" xmlns="http://www.w3.org/2000/svg" viewBox="0 0 1080 1080">
  <path d="m692.75,365.65c-.3.51-.49,1.14-.91,1.52-13.72,12.47-14.62,30.1-18.56,46.44-3.73,15.46-7.45,30.83-18.31,43.24-16.49,18.85-37.81,25.27-61.96,23.13-36.5-3.24-57.47-25.38-68.92-58.36-3.19-9.18-5.58-18.64-8.63-27.87-3.87-11.73-6.91-13.6-18.89-13.61-4.67,0-7.42,2.17-8.68,6.15-2.38,7.53-4.28,15.21-6.54,22.79-6.18,20.74-15.76,39.54-31.35,54.93-10.33,10.2-23.07,14.99-37.19,16.22-17.19,1.5-34.09.35-50.09-7.06-12.73-5.9-22.46-14.64-26.69-28.39-5.41-17.62-10.39-35.38-15.92-52.96-1.67-5.31-4.44-10.3-6.94-15.32-2.85-5.72-5.97-11.3-8.98-16.95v-19.55c6.3-1.47,12.57-3.15,18.92-4.37,18.48-3.55,36.87-8.47,55.53-10,26.3-2.16,52.14,3.42,77.55,10.09,19.18,5.04,38.52,8.89,58.36,5.45,19.76-3.43,39.41-7.54,59.06-11.59,19.01-3.92,38.15-6.86,57.4-3.01,18.65,3.73,37.09,8.5,55.53,13.18,2.36.6,4.16,3.37,6.22,5.14,0,6.92,0,13.85,0,20.77Zm-286.9-28.04c-.08-.56-32.86,2.55-48.7,6.52-16.75,4.2-23.57,14.55-23.35,31.88.26,21.08,4.34,41.54,11.69,61.29,4.03,10.85,10.89,19.82,21.5,24.69,25.11,11.54,64.65,10.92,86.09-20.82,10.82-16.01,17.58-33.92,20.79-52.85,3.79-22.39-3.1-33.67-24.09-42.47-14.04-5.89-28.61-9.05-43.92-8.25Zm137.5,11.34c-13.47,6.98-20.84,18.25-17.98,33.39,2.61,13.83,6.51,27.63,11.69,40.71,13.21,33.37,37.31,47.92,73.06,45.11,21.75-1.71,37.79-11.85,45.09-33.19,6.4-18.71,10.65-37.89,10.6-57.81-.05-20.12-7.49-30.2-27.27-34.37-6.94-1.46-25.28-6.04-44.46-5.29-20.74.81-42.43,7.16-50.74,11.46Z" fill="#009245"/>
</svg>