<?xml version="1.0" encoding="UTF-8"?>
<svg id="a" data-name="Layer 2" xmlns="http://www.w3.org/2000/svg" viewBox="0 0 1080 1080">
  <path d="m788.42,363.83c-11.38-1.54-19.52-8.21-25.12-18.17-3.37-5.95-7.38-11.57-12.04-16.53-15.34-16.34-32.56-29.34-56.18-31.05-5.02-.35-10.18.29-15.09-1.31h-17.6c-.57.47-1.22.75-1.98.72-22.79-.97-41.88,7.74-59.11,21.97-8.65,7.14-18.21,13.05-29.04,16.63-6.63,2.19-13.32,3.48-20.02.81-8.37-3.31-16.67-3.11-25-.18-6.03,2.13-11.83,1.53-17.89-.28-14.9-4.46-26.5-14.2-38.67-23.11-11.35-8.31-23.67-13.99-37.97-15.24-5.03-.44-10.18.28-15.09-1.32h-17.6c-2.23,1.47-4.74.45-7.1.73-8.42.98-17.1.65-25.06,4.06-21.4,9.21-38.82,23.23-50.43,43.63-5.97,10.5-14.65,17.08-26.26,18.99-8.12,1.33-11.78,5.62-12.8,13.15v8.8c.69,7.79,3.75,13.68,11.72,16.59,3.99,1.47,6.31,5.24,8.15,9.05,2.14,4.41,3.53,9.09,5.28,13.64,8.46,22.09,18.98,42.81,38.33,57.68,12.82,9.84,26.24,18.04,43.07,18.92,4.52.25,9.21-.19,13.64,1.32h20.53c1.73-1.35,3.75-.53,5.65-.72,10.09-1.08,20.22-1.51,29.65-6.2,25.4-12.63,43.53-31.93,53.6-58.38,7.99-21.03,12.16-43.17,17.86-64.86,2.74-10.44,7.07-15,14.28-15.19,7.1-.19,11.48,4.25,14.31,15,3.68,13.92,6.94,27.94,10.57,41.87,4.27,16.32,8.99,32.47,19.39,46.25,15.53,20.59,33.88,36.88,60.71,40.62,5.25.72,10.62.32,15.81,1.61h20.53c1.73-1.35,3.75-.54,5.63-.72,10.75-1.04,21.6-1.42,31.54-6.53,20.57-10.54,36.44-25.82,47.16-46.34,5.54-10.59,10.34-21.5,14.17-32.83,1.89-5.6,3.94-11.78,9.93-13.77,7.92-2.64,10.9-8.05,11.76-15.53v-11.73c-1.41-7.32-5.6-11.01-13.23-12.05Zm-381.95,127.75c-49.44-.21-90.2-42.29-89.9-92.8.32-49.98,41.81-90.82,92.04-90.6,50.73-.66,92.56,43.5,91.3,94.21-1.22,49.23-42.37,89.4-93.44,89.19Zm265.52-.01c-50.58.01-91.61-41.03-91.66-91.68-.03-50.61,40.96-91.66,91.6-91.7,50.77-.04,91.55,40.77,91.55,91.61s-40.86,91.77-91.49,91.77Z" fill="#333"/>
</svg>