<?xml version="1.0" encoding="UTF-8"?>
<svg id="a" data-name="Layer 2" xmlns="http://www.w3.org/2000/svg" viewBox="0 0 1080 1080">
  <path d="m306.19,397.87c0-3.66,0-7.32,0-10.98,1.4-.75,2.89-2.27,4.19-2.11,5.35.64,6.71-2.32,7.81-6.77,4.31-17.44,15.63-29.04,31.73-36.1,19.18-8.4,39.47-10.65,60.14-9.22,12.71.88,25.34,3.71,38.03,3.93,32.48.57,64.99.21,97.48.13,4.24-.01,8.54-.18,12.7-.91,23.59-4.17,47.19-5.22,70.76-.19,16.61,3.55,32.17,9.69,42.1,24.33,4.89,7.21,7.69,15.84,11.31,23.56,3.63,1.05,7.58,2.19,11.53,3.33v10.98c-3.46.66-6.92,1.31-10.54,2-.12,1.97-.27,3.77-.32,5.58-1.62,55.32-57.84,86.35-105.26,58.06-17.55-10.47-31.49-24.93-43.64-41.1-11.36-15.11-20.48-31.23-19.42-51.21.08-1.42-1.87-3.61-3.4-4.33-8.46-3.98-17.25-4.28-25.98-.96-1.29.49-2.82,2.88-2.67,4.2,1.38,11.57-1.62,22.22-6.78,32.27-12.79,24.92-30.97,45.25-54.7,60.03-49.75,30.99-96.49-2.84-104.69-42.09-1.43-6.86-1.84-13.93-2.68-20.64-2.7-.64-5.2-1.23-7.71-1.82Zm157.85-54.25c2.39,1.93,3.66,2.9,4.86,3.95,1.38,1.2,3.16,2.22,3.97,3.74,4.33,8.23,10.11,9.65,19.39,7.77,7.8-1.58,16.49,1.23,24.64,2.08,4.71-5.36,9.93-11.3,15.41-17.55h-68.27Z" fill="#333"/>
</svg>