<?xml version="1.0" encoding="UTF-8"?>
<svg id="a" data-name="Layer 2" xmlns="http://www.w3.org/2000/svg" viewBox="0 0 1080 1080">
  <path d="m297.02,305.33c14.89-7.55,29.14-19.45,44.81-21.78,36.59-5.43,73.83-7.15,110.87-8.64,22.7-.92,31.05,18.38,43.23,34.9-66.83,4.83-131.52-15.09-195.87.91-1.01-1.8-2.02-3.6-3.04-5.39Z"/>
  <path d="m782.98,306.19c-28.28,0-57.49-.7-86.66.18-34.77,1.05-69.5,3.44-104.7,5.28,11.18-28.47,25.08-37.5,52.76-35.6,31.84,2.19,63.7,4.08,95.54,6.16,19.86,1.3,35.6,9.34,43.06,23.98Z"/>
</svg>