<?xml version="1.0" encoding="UTF-8"?>
<svg id="a" data-name="Layer 2" xmlns="http://www.w3.org/2000/svg" viewBox="0 0 1080 1080">
  <path d="m662.41,307.89c-19.32,0-37.55-.99-55.62.27-19.78,1.37-39.38,5.07-59.12,7.22-8.17.89-17.42,2.67-24.5-.15-7.39-2.94-16.79-10.14-18.14-16.9-2.31-11.6,7.58-16.4,18.88-17.09,28.07-1.72,56.11-4.67,84.2-5.24,12.31-.25,25.18,2.73,36.95,6.75,12.67,4.33,17.96,15.12,17.36,25.16Z" fill="#333"/>
  <path d="m334.48,307.91c-.01-16.04,8.36-26.76,30.41-30.05,15.66-2.34,31.89-1.86,47.8-1.19,20.93.89,41.79,3.24,62.68,4.89,10.64.84,17.32,7.49,15.76,17.04-.96,5.93-7.87,13.44-13.72,15.41-8.46,2.83-18.48,2.26-27.67,1.39-20.31-1.92-40.45-5.8-60.78-7.22-18.06-1.26-36.28-.26-54.48-.26Z" fill="#333"/>
</svg>