<?xml version="1.0" encoding="UTF-8"?>
<svg id="a" data-name="Layer 2" xmlns="http://www.w3.org/2000/svg" viewBox="0 0 1080 1080">
  <path d="m588.7,306.72c35.45.86,57.09-20.59,80.49-37.55,32.38-23.48,65.84-27.44,101.9-10.5,2.24,1.05,4.24,2.63,11.9,7.46-12.37,0-18.72.3-25.03-.05-24.41-1.38-44.67,7.45-64.09,22.02-18.32,13.75-38.1,26.15-58.74,36.02-16.98,8.12-33.01,2.52-46.42-17.4Z" fill="#333"/>
  <path d="m483,312.46c-9.12,13.26-23.85,18.63-40.92,12.4-13.88-5.07-28.39-11.2-39.51-20.55-30.63-25.78-62.54-45.89-105.55-39.17,28.62-17.31,57.71-24.48,88.2-7.84,14.29,7.8,27.06,18.34,41.26,26.32,17.98,10.09,36.72,18.83,56.52,28.85Z" fill="#333"/>
</svg>