<?xml version="1.0" encoding="UTF-8"?>
<svg id="a" data-name="Layer 2" xmlns="http://www.w3.org/2000/svg" viewBox="0 0 1080 1080">
  <path d="m782.98,304.11c-23.57-35.1-56.86-38.73-89.39-28.04-31.72,10.43-60.65,29.25-91.09,43.77-5.6,2.67-12.58,2.45-18.92,3.57,1.11-6.03,1.7-12.22,3.5-18.03,1.21-3.9,3.26-8.61,6.42-10.68,32.81-21.44,66.01-42.5,106.34-46.54,40.53-4.05,72.51,16.87,83.15,55.94Z" fill="#333"/>
  <path d="m491.04,327.7c-17.9-10.97-34.59-23.83-53.33-31.98-22.74-9.89-46.73-19.15-71.05-22.64-33.51-4.81-47.28,3.85-69.65,31.6,9.15-37.61,41.87-60.52,82.5-56.73,41.25,3.84,75.76,24.57,108.26,47.85,7.39,5.29,23.88,18.56,3.27,31.91Z" fill="#333"/>
</svg>