<?xml version="1.0" encoding="UTF-8"?>
<svg id="a" data-name="Layer 2" xmlns="http://www.w3.org/2000/svg" viewBox="0 0 1080 1080">
  <path d="m297.02,328.55c2.9-5.69,4.67-12.47,8.89-16.92,35.65-37.55,79.7-59.34,131.36-57.16,18.91.8,37.42,15.47,55.59,24.82,3.01,1.55,5.79,9.7,4.3,12.27-1.85,3.19-8.16,4.08-12.72,5.28-1.86.49-4.42-.38-6.26-1.37-54.06-29.26-98.98-.08-144.89,22.6-10.5,5.18-20.89,10.56-31.34,15.85-1.64-1.79-3.28-3.58-4.93-5.37Z" fill="#333"/>
  <path d="m782.98,249.4c-3.99,5.69-7.22,12.15-12.09,16.95-34.56,34.12-76.91,51.76-124.75,55.66-23.81,1.94-43.88-8.68-59.99-25.94-2.85-3.06-5.4-10.1-3.81-12.66,1.89-3.06,8.31-3.57,12.91-4.57,1.95-.43,4.51.22,6.35,1.21,55.32,29.67,100.47-1.59,147.07-24.36,9.73-4.76,19.66-9.11,29.5-13.65,1.61,2.45,3.21,4.91,4.82,7.36Z" fill="#333"/>
</svg>