<?xml version="1.0" encoding="UTF-8"?>
<svg id="a" data-name="Layer 2" xmlns="http://www.w3.org/2000/svg" viewBox="0 0 1080 1080">
  <path d="m654.49,296.89c-15.13-22.54-36.51-24.87-57.4-18-20.37,6.7-38.95,18.78-58.49,28.11-3.6,1.72-8.08,1.58-12.15,2.29.71-3.87,1.09-7.85,2.25-11.58.78-2.51,2.09-5.53,4.13-6.86,21.07-13.77,42.39-27.29,68.28-29.88,26.03-2.6,46.56,10.83,53.39,35.92Z" fill="#333"/>
  <path d="m467.03,312.04c-11.5-7.04-22.21-15.3-34.24-20.54-14.6-6.35-30.01-12.3-45.62-14.54-21.52-3.09-30.36,2.47-44.72,20.29,5.88-24.15,26.88-38.86,52.98-36.43,26.49,2.47,48.65,15.78,69.52,30.72,4.74,3.4,15.34,11.92,2.1,20.49Z" fill="#333"/>
</svg>