<?xml version="1.0" encoding="UTF-8"?>
<svg id="a" data-name="Layer 2" xmlns="http://www.w3.org/2000/svg" viewBox="0 0 1080 1080">
  <path d="m493.21,293.62c-.05,18.96-14.56,24.34-32.35,22.46-13.63-1.44-27.08-5.95-40.24-10.23-42.72-13.86-84.13-17.17-123.59,15.92,14.97-34.59,47.14-51.03,85.3-45.42,35.87,5.27,71.66,11.13,110.89,17.27Z" fill="#333"/>
  <path d="m586.99,293.8c39.09-6.2,74.9-12.07,110.77-17.52,35.4-5.38,66.49,9.45,85.22,44.51-48.02-36.62-94.04-25.56-140.4-9.97-9.21,3.1-19.23,6.08-28.7,5.6-16.64-.84-30.32-6.83-26.89-22.62Z" fill="#333"/>
</svg>