<?xml version="1.0" encoding="UTF-8"?>
<svg id="a" data-name="Layer 2" xmlns="http://www.w3.org/2000/svg" viewBox="0 0 1080 1080">
  <path d="m335.25,311.94c10-5.07,19.57-13.07,30.1-14.63,24.58-3.65,49.59-4.8,74.48-5.8,15.25-.62,20.86,12.34,29.04,23.44-44.89,3.25-88.34-10.13-131.57.61-.68-1.21-1.36-2.42-2.04-3.62Z" fill="#333"/>
  <path d="m661.68,312.52c-18.99,0-38.62-.47-58.21.12-23.36.7-46.69,2.31-70.33,3.55,7.51-19.12,16.85-25.19,35.44-23.91,21.39,1.47,42.79,2.74,64.18,4.14,13.34.87,23.92,6.27,28.93,16.11Z" fill="#333"/>
</svg>