<?xml version="1.0" encoding="UTF-8"?>
<svg id="a" data-name="Layer 2" xmlns="http://www.w3.org/2000/svg" viewBox="0 0 1080 1080">
  <path d="m666.48,301.19c-27.52-28.37-54.32-19.74-81.57-.94-9.61,6.63-20.27,11.71-30.22,17.87-9.43,5.84-15.68,3.89-20.85-10.53,25.41-12.54,50.04-28.61,77.07-36.86,24.09-7.35,41.4,11.38,55.57,30.46Z" fill="#333"/>
  <path d="m338.09,297.48c11.2-8.13,21.64-17.76,33.86-23.83,7.71-3.84,19.56-5.82,26.97-2.63,25.19,10.83,49.23,24.32,73.37,36.62-4.26,14.63-10.73,16.4-20.82,10.19-13.57-8.35-27.82-15.64-41.17-24.31-22.04-14.32-42.81-14.93-62.88,3.39-1.94,1.77-4.35,3.03-6.55,4.53-.93-1.32-1.85-2.64-2.78-3.96Z" fill="#333"/>
</svg>