<?xml version="1.0" encoding="UTF-8"?>
<svg id="a" data-name="Layer 2" xmlns="http://www.w3.org/2000/svg" viewBox="0 0 1080 1080">
  <path d="m782.92,305.07c-28.63,0-55.63-1.46-82.41.39-29.31,2.03-58.35,7.52-87.6,10.69-12.11,1.31-25.81,3.95-36.31-.23-10.95-4.36-24.88-15.02-26.87-25.05-3.43-17.19,11.23-24.3,27.97-25.33,41.6-2.54,83.14-6.92,124.76-7.77,18.24-.37,37.31,4.05,54.74,10,18.78,6.41,26.61,22.41,25.72,37.28Z" fill="#333"/>
  <path d="m297.02,305.1c-.02-23.77,12.39-39.65,45.06-44.53,23.2-3.47,47.25-2.76,70.83-1.76,31.01,1.31,61.92,4.8,92.88,7.24,15.76,1.25,25.66,11.1,23.36,25.24-1.43,8.78-11.66,19.92-20.34,22.83-12.53,4.2-27.38,3.35-41,2.06-30.09-2.84-59.94-8.6-90.06-10.69-26.76-1.86-53.75-.39-80.73-.39Z" fill="#333"/>
</svg>