<?xml version="1.0" encoding="UTF-8"?>
<svg id="a" data-name="Layer 2" xmlns="http://www.w3.org/2000/svg" viewBox="0 0 1080 1080">
  <path d="m782.98,242.88c-27.67-25.29-50.53-26.36-76.32-1.46-19.61,18.93-35.61,41.54-54.45,61.34-11.39,11.97-23.83,24.07-38.11,31.87-21.28,11.63-34.57,3.23-38.93-16.46,19.89-12.37,39.12-22.5,56.28-35.41,26.09-19.63,49.54-42.91,76.33-61.44,27-18.67,57.59-12.14,72.13,11.54,1.41,2.3,1.67,5.29,3.09,10.02Z" fill="#333"/>
  <path d="m297.02,242.64c13.27-32.27,42.95-42.11,73.92-21.84,24.6,16.1,46.11,36.9,69.22,55.34,12.42,9.91,24.83,19.99,38.2,28.49,6.96,4.43,16,5.59,25.09,8.55.32,21.58-11.96,32.78-32.91,22.99-15.87-7.42-30.02-20.07-42.51-32.78-19.63-19.96-35.84-43.37-56.02-62.69-26.26-25.15-50.42-23.1-74.98,1.95Z" fill="#333"/>
</svg>