<?xml version="1.0" encoding="UTF-8"?>
<svg id="a" data-name="Layer 2" xmlns="http://www.w3.org/2000/svg" viewBox="0 0 1080 1080">
  <path d="m330.47,320.16c2.01-3.94,3.23-8.62,6.15-11.69,24.65-25.96,55.1-41.03,90.82-39.52,13.07.55,25.87,10.7,38.43,17.16,2.08,1.07,4,6.71,2.97,8.48-1.28,2.21-5.64,2.82-8.79,3.65-1.28.34-3.06-.26-4.33-.95-37.38-20.23-68.43-.06-100.18,15.62-7.26,3.58-14.45,7.3-21.67,10.96-1.14-1.24-2.27-2.48-3.41-3.72Z" fill="#333"/>
  <path d="m666.46,265.43c-2.76,3.93-4.99,8.4-8.36,11.72-23.89,23.59-53.18,35.79-86.25,38.48-16.46,1.34-30.34-6-41.47-17.93-1.97-2.12-3.73-6.98-2.64-8.75,1.31-2.11,5.75-2.47,8.92-3.16,1.35-.29,3.12.15,4.39.84,38.25,20.52,69.46-1.1,101.68-16.84,6.73-3.29,13.59-6.3,20.4-9.44,1.11,1.7,2.22,3.39,3.33,5.09Z" fill="#333"/>
</svg>