<?xml version="1.0" encoding="UTF-8"?>
<svg id="a" data-name="Layer 2" xmlns="http://www.w3.org/2000/svg" viewBox="0 0 1080 1080">
  <path d="m327.09,304.87c10.5-5.33,20.55-13.72,31.6-15.36,25.81-3.83,52.07-5.04,78.2-6.09,16.01-.65,21.9,12.96,30.49,24.62-47.13,3.41-92.76-10.64-138.15.64-.71-1.27-1.43-2.54-2.14-3.8Z" fill="#333"/>
  <path d="m669.84,305.47c-19.94,0-40.55-.49-61.12.13-24.52.74-49.02,2.43-73.85,3.72,7.89-20.08,17.69-26.45,37.21-25.11,22.46,1.54,44.93,2.88,67.39,4.34,14.01.91,25.11,6.58,30.37,16.91Z" fill="#333"/>
</svg>