<?xml version="1.0" encoding="UTF-8"?>
<svg id="a" data-name="Layer 2" xmlns="http://www.w3.org/2000/svg" viewBox="0 0 1080 1080">
  <path d="m463.89,291.79c-.04,14.01-10.76,17.98-23.91,16.59-10.07-1.06-20.01-4.4-29.74-7.56-31.56-10.24-62.16-12.69-91.32,11.76,11.06-25.56,34.83-37.7,63.03-33.56,26.51,3.89,52.95,8.23,81.94,12.76Z" fill="#333"/>
  <path d="m533.19,291.93c28.88-4.58,55.34-8.92,81.85-12.95,26.16-3.98,49.13,6.98,62.97,32.89-35.48-27.06-69.49-18.88-103.74-7.36-6.81,2.29-14.21,4.49-21.21,4.14-12.3-.62-22.4-5.04-19.87-16.71Z" fill="#333"/>
</svg>