<?xml version="1.0" encoding="UTF-8"?>
<svg id="a" data-name="Layer 2" xmlns="http://www.w3.org/2000/svg" viewBox="0 0 1080 1080">
  <path d="m650.1,275.04c-17.27-15.78-31.53-16.45-47.63-.91-12.24,11.81-22.22,25.92-33.98,38.28-7.11,7.47-14.87,15.02-23.78,19.89-13.28,7.25-21.58,2.01-24.29-10.27,12.41-7.72,24.41-14.04,35.12-22.1,16.28-12.25,30.91-26.78,47.63-38.34,16.85-11.65,35.94-7.58,45.01,7.2.88,1.43,1.04,3.3,1.93,6.26Z" fill="#333"/>
  <path d="m346.84,274.89c8.28-20.14,26.8-26.28,46.13-13.63,15.35,10.05,28.77,23.03,43.19,34.53,7.75,6.18,15.49,12.47,23.84,17.78,4.35,2.76,9.99,3.49,15.66,5.33.2,13.46-7.46,20.46-20.54,14.35-9.9-4.63-18.73-12.52-26.53-20.45-12.25-12.46-22.37-27.07-34.96-39.12-16.39-15.69-31.47-14.41-46.79,1.21Z" fill="#333"/>
</svg>