<?xml version="1.0" encoding="UTF-8"?>
<svg id="a" data-name="Layer 2" xmlns="http://www.w3.org/2000/svg" viewBox="0 0 1080 1080">
  <path d="m784.6,298.1c-40.72-41.98-80.38-29.21-120.71-1.38-14.22,9.81-30,17.32-44.72,26.44-13.95,8.64-23.21,5.76-30.85-15.59,37.6-18.56,74.06-42.34,114.04-54.55,35.65-10.88,61.26,16.85,82.24,45.08Z" fill="#333"/>
  <path d="m298.63,292.61c16.57-12.02,32.03-26.28,50.1-35.26,11.42-5.68,28.94-8.61,39.91-3.89,37.28,16.02,72.86,35.99,108.57,54.2-6.31,21.65-15.88,24.27-30.8,15.09-20.09-12.36-41.17-23.14-60.93-35.98-32.61-21.18-63.36-22.09-93.06,5.01-2.88,2.62-6.44,4.49-9.69,6.71-1.37-1.95-2.74-3.91-4.11-5.86Z" fill="#333"/>
</svg>