<?xml version="1.0" encoding="UTF-8"?>
<svg id="a" data-name="Layer 2" xmlns="http://www.w3.org/2000/svg" viewBox="0 0 1080 1080">
  <path d="m533.11,295.06c25.22.61,40.61-14.64,57.25-26.71,23.03-16.7,46.84-19.52,72.48-7.47,1.59.75,3.01,1.87,8.47,5.31-8.8,0-13.32.22-17.81-.04-17.37-.98-31.77,5.3-45.59,15.66-13.03,9.78-27.11,18.6-41.79,25.62-12.08,5.77-23.48,1.79-33.02-12.37Z" fill="#333"/>
  <path d="m457.92,299.14c-6.49,9.43-16.97,13.26-29.11,8.82-9.88-3.61-20.2-7.96-28.1-14.62-21.79-18.34-44.49-32.64-75.08-27.87,20.36-12.32,41.05-17.41,62.74-5.58,10.16,5.55,19.25,13.05,29.35,18.72,12.79,7.18,26.12,13.39,40.2,20.52Z" fill="#333"/>
</svg>