<?xml version="1.0" encoding="UTF-8"?>
<svg id="Layer_2" data-name="Layer 2" xmlns="http://www.w3.org/2000/svg" viewBox="0 0 1080 1080">
  <path d="m278.36,392.59c0-4.94,0-9.88,0-14.81,1.89-1.01,3.91-3.06,5.65-2.85,7.22.87,9.05-3.13,10.54-9.13,5.82-23.53,21.09-39.19,42.81-48.71,25.88-11.34,53.26-14.38,81.16-12.44,17.15,1.19,34.19,5,51.32,5.3,43.84.77,87.7.28,131.54.18,5.72-.01,11.52-.24,17.13-1.23,31.83-5.62,63.68-7.05,95.48-.25,22.42,4.79,43.41,13.08,56.82,32.83,6.6,9.73,10.38,21.38,15.27,31.79,4.89,1.42,10.22,2.96,15.55,4.5v14.81c-4.67.89-9.33,1.77-14.22,2.7-.16,2.66-.36,5.09-.44,7.53-2.18,74.65-78.05,116.53-142.04,78.35-23.69-14.13-42.49-33.64-58.89-55.46-15.32-20.39-27.64-42.14-26.2-69.11.1-1.91-2.53-4.87-4.59-5.84-11.41-5.37-23.28-5.78-35.05-1.29-1.74.66-3.81,3.89-3.6,5.67,1.86,15.61-2.19,29.98-9.14,43.54-17.25,33.63-41.79,61.06-73.82,81.01-67.14,41.82-130.21-3.83-141.27-56.79-1.93-9.26-2.48-18.8-3.62-27.85-3.64-.86-7.02-1.66-10.4-2.45Zm213.01-73.21c3.22,2.61,4.94,3.92,6.56,5.33,1.86,1.62,4.27,3,5.35,5.05,5.84,11.11,13.64,13.02,26.17,10.49,10.53-2.13,22.25,1.66,33.26,2.81,6.35-7.23,13.4-15.25,20.8-23.68h-92.13Z"/>
</svg>