<?xml version="1.0" encoding="UTF-8"?>
<svg id="Layer_2" data-name="Layer 2" xmlns="http://www.w3.org/2000/svg" viewBox="0 0 1080 1080">
  <path d="m801.64,350.05c-.4.69-.66,1.54-1.23,2.05-18.47,16.79-19.69,40.53-25,62.55-5.02,20.81-10.04,41.52-24.66,58.23-22.21,25.39-50.92,34.04-83.44,31.15-49.15-4.36-77.39-34.19-92.82-78.6-4.29-12.37-7.52-25.1-11.62-37.54-5.21-15.8-9.31-18.32-25.45-18.33-6.29,0-9.99,2.92-11.68,8.29-3.21,10.14-5.77,20.49-8.81,30.69-8.32,27.93-21.22,53.25-42.23,73.97-13.92,13.73-31.07,20.19-50.08,21.85-23.14,2.02-45.91.48-67.46-9.5-17.15-7.94-30.25-19.72-35.94-38.24-7.29-23.73-13.99-47.65-21.44-71.32-2.25-7.15-5.98-13.88-9.35-20.63-3.84-7.7-8.05-15.22-12.09-22.82v-26.33c8.49-1.98,16.92-4.24,25.48-5.88,24.89-4.79,49.65-11.4,74.78-13.47,35.42-2.91,70.21,4.6,104.44,13.59,25.84,6.79,51.87,11.97,78.59,7.33,26.61-4.62,53.07-10.15,79.53-15.61,25.6-5.28,51.38-9.24,77.3-4.06,25.11,5.02,49.95,11.45,74.79,17.75,3.17.8,5.6,4.54,8.37,6.92,0,9.32,0,18.65,0,27.97Zm-386.38-37.76c-.11-.76-.22-1.52-.33-2.28-21.78,3.56-43.91,5.72-65.25,11.06-22.56,5.65-31.74,19.6-31.45,42.93.35,28.39,5.85,55.95,15.74,82.55,5.43,14.61,14.66,26.69,28.95,33.25,33.82,15.54,87.07,14.7,115.93-28.03,14.57-21.56,23.68-45.69,28-71.18,5.11-30.16-4.18-45.34-32.45-57.19-18.91-7.93-38.53-12.19-59.15-11.11Zm254.27-1.75c-24.51.85-47.56,5.86-69.1,17.02-18.13,9.39-28.06,24.58-24.22,44.96,3.51,18.62,8.77,37.21,15.74,54.83,17.79,44.94,50.24,64.53,98.39,60.75,29.29-2.3,50.9-15.96,60.73-44.7,8.61-25.19,14.34-51.03,14.27-77.85-.07-27.09-10.08-40.67-36.72-46.29-19.45-4.1-39.38-5.89-59.1-8.71Z"/>
</svg>