<?xml version="1.0" encoding="UTF-8"?>
<svg xmlns="http://www.w3.org/2000/svg" viewBox="0 0 1080 1080">
  <g isolation="isolate">
    <g id="a" data-name="Layer 2">
      <g>
        <path d="m529.42,259.79c-153.66,0-279.77-29.64-293.22-67.45l7.74,41.35c3.61,19.27,16.72,35.38,34.88,42.74,35.63,14.45,109.01,33.07,250.6,33.07s214.97-18.62,250.6-33.07c18.16-7.37,31.28-23.48,34.88-42.74l7.74-41.35c-13.45,37.81-139.56,67.45-293.22,67.45Z" fill="#b26d02"/>
        <path d="m529.42,135.74c-162.63,0-294.47,33.2-294.47,74.15s131.84,74.15,294.47,74.15,294.47-33.2,294.47-74.15-131.84-74.15-294.47-74.15Zm0,135.36c-184.85,0-281.54-39.85-281.54-61.22s96.7-61.22,281.54-61.22,281.54,39.85,281.54,61.22-96.7,61.22-281.54,61.22Z" fill="#d60000"/>
        <path d="m529.42,124.43c-162.63,0-294.47,33.2-294.47,74.15s131.84,74.15,294.47,74.15,294.47-33.2,294.47-74.15-131.84-74.15-294.47-74.15Zm0,135.37c-184.85,0-281.54-39.85-281.54-61.22s96.7-61.22,281.54-61.22,281.54,39.85,281.54,61.22-96.7,61.22-281.54,61.22Z" fill="#ebf3ef"/>
        <path d="m529.42,111.5c-162.63,0-294.47,33.2-294.47,74.15s131.84,74.15,294.47,74.15,294.47-33.2,294.47-74.15-131.84-74.15-294.47-74.15Z" fill="#ffa61d"/>
        <path d="m618.59,127.89c-19.37-6.07-193.65,31.93-193.65,31.93-115.28-4.3-171.31,9.7-178.96,18.66-7.65,8.96,5.49,24.44,46.43,46.82,40.94,22.38,202.52,25.61,202.52,25.61l151.14-48.81s-8.11-68.15-27.48-74.22Z" fill="#b26d02"/>
        <path d="m529.42,111.5c-162.63,0-294.47,33.2-294.47,74.15s131.84,74.15,294.47,74.15,294.47-33.2,294.47-74.15-131.84-74.15-294.47-74.15Zm0,135.37c-184.85,0-281.54-39.85-281.54-61.22s96.7-61.22,281.54-61.22,281.54,39.85,281.54,61.22-96.7,61.22-281.54,61.22Z" fill="#d60000"/>
        <path d="m529.42,0c-51.53,0-116.65,202.11-116.65,202.11,0,0,26.85,13.85,116.65,13.85s116.65-13.85,116.65-13.85c0,0-65.12-202.11-116.65-202.11Z" fill="#ffa61d"/>
        <path d="m251.8,221.55c-6.17,0-11.17,5.8-11.17,12.95s5,12.95,11.17,12.95,11.17-5.8,11.17-12.95-5-12.95-11.17-12.95Z" fill="#e0d181" mix-blend-mode="multiply"/>
        <path d="m245.98,218.97c-7.86,0-14.24,6.38-14.24,14.24s6.38,14.24,14.24,14.24,14.24-6.38,14.24-14.24-6.38-14.24-14.24-14.24Z" fill="#ebf3ef"/>
        <path d="m311.02,247.31c-9.09,0-16.46,6.68-16.46,14.91s7.37,14.91,16.46,14.91,16.46-6.68,16.46-14.91-7.37-14.91-16.46-14.91Z" fill="#e0d181" mix-blend-mode="multiply"/>
        <path d="m387.83,262.22c-8.96,0-16.23,6.68-16.23,14.91s7.27,14.91,16.23,14.91,16.23-6.68,16.23-14.91-7.27-14.91-16.23-14.91Z" fill="#e0d181" mix-blend-mode="multiply"/>
        <path d="m477.13,270.85c-9.19,0-16.64,6.68-16.64,14.91s7.45,14.91,16.64,14.91,16.64-6.68,16.64-14.91-7.45-14.91-16.64-14.91Z" fill="#e0d181" mix-blend-mode="multiply"/>
        <path d="m578.08,270.85c-9.01,0-16.31,6.68-16.31,14.91s7.3,14.91,16.31,14.91,16.31-6.68,16.31-14.91-7.3-14.91-16.31-14.91Z" fill="#e0d181" mix-blend-mode="multiply"/>
        <path d="m666.71,263.08c-8.95,0-16.21,6.68-16.21,14.91s7.26,14.91,16.21,14.91,16.21-6.68,16.21-14.91-7.26-14.91-16.21-14.91Z" fill="#e0d181" mix-blend-mode="multiply"/>
        <path d="m742.89,249.35c-8.98,0-16.26,6.68-16.26,14.91s7.28,14.91,16.26,14.91,16.26-6.68,16.26-14.91-7.28-14.91-16.26-14.91Z" fill="#e0d181" mix-blend-mode="multiply"/>
        <ellipse cx="804.46" cy="238.1" rx="8.07" ry="12.82" fill="#e0d181" mix-blend-mode="multiply"/>
        <circle cx="314.86" cy="261.69" r="14.24" fill="#ebf3ef"/>
        <path d="m390.99,261.69c-7.86,0-14.24,6.38-14.24,14.24s6.38,14.24,14.24,14.24,14.24-6.38,14.24-14.24-6.38-14.24-14.24-14.24Z" fill="#ebf3ef"/>
        <path d="m480.69,270.85c-7.86,0-14.24,6.38-14.24,14.24s6.38,14.24,14.24,14.24,14.24-6.38,14.24-14.24-6.38-14.24-14.24-14.24Z" fill="#ebf3ef"/>
        <path d="m814.96,218.97c-7.87,0-14.24,6.38-14.24,14.24s6.37,14.24,14.24,14.24,14.24-6.38,14.24-14.24-6.38-14.24-14.24-14.24Z" fill="#ebf3ef"/>
        <circle cx="746.08" cy="261.69" r="14.24" fill="#ebf3ef"/>
        <circle cx="669.94" cy="275.93" r="14.24" fill="#ebf3ef"/>
        <path d="m581.32,270.85c-7.86,0-14.24,6.38-14.24,14.24s6.38,14.24,14.24,14.24,14.24-6.38,14.24-14.24-6.38-14.24-14.24-14.24Z" fill="#ebf3ef"/>
        <path d="m502.51,189.08c-12.58-23.58,21.57-165.26,27.42-189.02-.17,0-.34-.06-.51-.06-51.53,0-116.65,202.11-116.65,202.11,0,0,26.85,13.85,116.65,13.85,54.4,0,85.67-5.08,101.89-9.09-.41.03-115.1,7.91-128.81-17.79Z" fill="#b26d02"/>
      </g>
    </g>
  </g>
</svg>