<?xml version="1.0" encoding="UTF-8"?>
<svg xmlns="http://www.w3.org/2000/svg" viewBox="0 0 1080 1080">
  <g isolation="isolate">
    <g id="a" data-name="Layer 2">
      <g>
        <path d="m766.51,130.7c-15.55,0-226.51,31.15-226.51,31.15,0,0-210.96-31.15-226.51-31.15-59.01,0-49.01,209.83,226.51,209.83h0c275.52,0,285.53-209.83,226.51-209.83Z" fill="#91513d"/>
        <path d="m319.05,131.31c-25.93-2.74-41.4,33.46-27.32,78.14,14.08,44.68,45.9,101.08,218.39,74.85,141.98-21.59,162.95-79.83,162.95-79.83l-212.84-54.22s-117.43-16.43-141.18-18.94Z" fill="#c4a481" mix-blend-mode="multiply"/>
        <path d="m623.89,6.11c-9.84-3.28-63.93,12.02-83.89,13.66-19.96-1.64-74.06-16.94-83.89-13.66-9.84,3.28-50.82,190.16-49.18,198.35,1.64,8.2,48.12,37.7,133.07,37.7h0c84.95,0,131.43-29.51,133.07-37.7,1.64-8.2-39.34-195.08-49.18-198.35Z" fill="#75260c"/>
        <path d="m615.22,19.12c-26.5,4.74,10.93,214.02,28.71,204.83,17.78-9.19,19.03-13.71,5.3-81.53-13.72-67.81-34.02-123.31-34.02-123.31Z" fill="#bdabd3" mix-blend-mode="soft-light"/>
        <path d="m540,205.56h0c-70.23,0-114.07-20.14-128.12-31.76-3.36,16.92-5.34,28.74-4.95,30.67,1.64,8.2,48.12,37.7,133.07,37.7h0c84.95,0,131.43-29.51,133.07-37.7.38-1.92-1.6-13.75-4.95-30.67-14.05,11.62-57.89,31.76-128.12,31.76Z" fill="#0b0b0b"/>
        <path d="m513.53,196.26c-10.87-38.18,3.8-159.21,3.8-159.21l-61.22-30.93c-9.84,3.28-50.82,190.16-49.18,198.35,1.64,8.2,48.12,37.7,133.07,37.7h0c41.55,0,73.82-7.07,96.22-15.24-1.82.12-111.91,7.19-122.69-30.68Z" fill="#c4bf81" mix-blend-mode="multiply"/>
        <path d="m467.61,188.23c-1.8-.4-11.62,9.83-14.85,24.41-3.23,14.59-.49,21.29,4.49,22.39,4.97,1.1,10.29-3.82,13.52-18.4,3.23-14.59-.15-27.74-3.16-28.4Z" fill="#d5deda"/>
        <path d="m428.85,169.93c-1.78-.47-12.03,9.33-15.88,23.76-3.85,14.43-1.39,21.25,3.53,22.56,4.92,1.31,10.44-3.37,14.29-17.81,3.85-14.43,1.03-27.72-1.94-28.51Z" fill="#d5deda"/>
        <path d="m513.53,196.26c-1.83-.2-10.49,11.02-12.14,25.87-1.64,14.85,1.81,21.22,6.87,21.77,5.06.56,9.82-4.9,11.46-19.75,1.64-14.85-3.14-27.56-6.19-27.9Z" fill="#d5deda"/>
        <path d="m606.44,189.01c-3,.66-6.38,13.82-3.15,28.4,3.23,14.58,8.55,19.5,13.52,18.4,4.97-1.1,7.72-7.8,4.49-22.39-3.23-14.58-13.05-24.81-14.85-24.41Z" fill="#d5deda"/>
        <path d="m645.2,173.57c-2.97.79-5.79,14.08-1.94,28.51,3.85,14.43,9.37,19.12,14.29,17.81,4.92-1.31,7.38-8.12,3.53-22.56-3.85-14.43-14.1-24.23-15.88-23.76Z" fill="#d5deda"/>
        <path d="m563.09,197.6c-3.05.34-7.83,13.05-6.19,27.9,1.64,14.85,6.4,20.31,11.46,19.75,5.06-.56,8.51-6.93,6.87-21.77-1.64-14.85-10.3-26.07-12.14-25.87Z" fill="#d5deda"/>
        <path d="m428.33,180.25c-1.82-.38-4.68,5.89-6.39,14.01-1.71,8.12-1.61,15.02.21,15.4,1.82.38,4.68-5.89,6.39-14.01,1.71-8.12,1.61-15.02-.21-15.4Z" fill="#f7f8f8"/>
        <path d="m467.94,197.77c-1.82-.38-4.68,5.89-6.39,14.01-1.71,8.12-1.61,15.02.21,15.4,1.82.38,4.68-5.89,6.39-14.01,1.71-8.12,1.61-15.02-.21-15.4Z" fill="#f7f8f8"/>
        <path d="m514.94,206.46c-1.86-.15-3.89,6.44-4.54,14.72-.65,8.27.33,15.1,2.19,15.24,1.86.15,3.89-6.44,4.54-14.72.65-8.27-.33-15.1-2.19-15.24Z" fill="#f7f8f8"/>
        <path d="m566.65,208.23c-1.83.36-2.01,7.25-.4,15.4,1.61,8.14,4.39,14.45,6.22,14.09,1.83-.36,2.01-7.25.4-15.4-1.61-8.14-4.39-14.45-6.22-14.09Z" fill="#f7f8f8"/>
        <path d="m610.99,198.06c-1.79.53-1.34,7.41,1,15.37,2.34,7.96,5.68,13.99,7.47,13.47,1.79-.52,1.34-7.41-1-15.37-2.34-7.96-5.68-13.99-7.47-13.47Z" fill="#f7f8f8"/>
        <path d="m650.33,181.83c-1.79.52-1.34,7.4,1,15.37,2.34,7.96,5.68,13.99,7.47,13.47,1.79-.52,1.34-7.4-.99-15.37-2.34-7.96-5.68-13.99-7.47-13.47Z" fill="#f7f8f8"/>
        <path d="m423.23,194.96c-2.6-1-10.22-7.8-10.22-7.8l-4.13,10.77s6.95,6.54,9.33,7.46c3.08,1.18,12.49.91,12.49.91l4.13-10.77s-8.74.53-11.6-.57Z" fill="#0b0b0b"/>
        <path d="m462.83,212.72c-2.71-.62-11.23-6.26-11.23-6.26l-2.55,11.25s7.81,5.48,10.3,6.05c3.21.73,12.49-.88,12.49-.88l2.55-11.25s-8.58,1.77-11.56,1.09Z" fill="#0b0b0b"/>
        <path d="m512.57,220.81c-2.76-.34-11.8-5.1-11.8-5.1l-1.41,11.45s8.32,4.68,10.85,4.99c3.27.4,12.34-2.13,12.34-2.13l1.41-11.45s-8.36,2.62-11.39,2.24Z" fill="#0b0b0b"/>
        <path d="m566.62,223.27c-2.78.17-12.53-2.88-12.53-2.88l.69,11.52s9.03,3.09,11.57,2.94c3.29-.2,11.75-4.33,11.75-4.33l-.69-11.52s-7.74,4.09-10.79,4.27Z" fill="#0b0b0b"/>
        <path d="m612.56,216.04c-2.73.53-12.8-1.2-12.8-1.2l2.2,11.32s9.36,1.87,11.86,1.38c3.24-.63,11.07-5.84,11.07-5.84l-2.2-11.32s-7.13,5.08-10.14,5.66Z" fill="#0b0b0b"/>
        <path d="m651.85,198.9c-2.63.91-12.84.6-12.84.6l3.77,10.9s9.53.54,11.94-.29c3.11-1.08,10.15-7.34,10.15-7.34l-3.77-10.9s-6.35,6.03-9.24,7.02Z" fill="#0b0b0b"/>
        <path d="m758.98,131.03c0,1.33,19.62,11.68,19.33,33.89-.34,25.75-13.26,64.85-50.47,97.31-30.01,26.18-86.95,57.38-187.83,57.38-130.71,0-187.87-44.09-212.79-81.08-27.3-40.51-24.22-84.12-20.95-92.2,5.72-14.15,21.18-12.89,21.4-14.2.21-1.31-18.65-5.39-25.86,12.4-3.62,8.94-7.36,53.99,21.42,96.69,25.58,37.95,83.96,83.21,216.78,83.21,102.37,0,160.37-31.85,191-58.57,38.43-33.52,52.43-74.12,52.12-100.93-.33-27.57-24.13-35.21-24.13-33.89Z" fill="#6a2400"/>
        <path d="m550.88,17.09c-7.17,1.72-14.59,1.72-21.76,0-21.06-5.06-65.95-15.14-73.02-10.98-9.29,5.46,83.88,62.83,83.89,62.84h0s0,0,0,0h0s93.18-57.38,83.89-62.84c-7.07-4.16-51.96,5.92-73.01,10.98Z" fill="#91513d"/>
      </g>
    </g>
  </g>
</svg>