<?xml version="1.0" encoding="UTF-8"?>
<svg id="a" data-name="Layer 2" xmlns="http://www.w3.org/2000/svg" viewBox="0 0 1080 1080">
  <path d="m377.06,208.56c3.14-16.18,5.65-31.45,9.14-46.49,4.5-19.35,9.13-38.71,14.91-57.71,6.65-21.86,16.48-42.36,29.32-61.44,16.21-24.09,40.04-33.28,67.56-15.59,5.42,3.48,11.51,5.92,17.35,8.74,22.55,10.88,43.29,4.65,63.52-6.72,9.59-5.39,18.78-11.22,30.72-11.11,15.55.15,27.08,7.25,35.94,18.85,19.93,26.13,32.28,56.04,40.24,87.62,5.5,21.85,9.18,44.16,13.65,66.27,1.12,5.56,2.15,11.13,3.48,18.06,7.18-4.35,14.09-8.42,20.89-12.67,15.57-9.73,30.78-20.07,46.72-29.15,12.85-7.32,26.85-10.93,42.11-10.52,14.57.39,32.66,14.14,35.15,32.44,3.61,26.46-7.61,46.88-23.7,65.45-19.15,22.1-44.36,34.58-72.76,39.15-19.32,3.11-39.14,3.8-58.76,4.04-10.46.12-19.02,2.84-27.66,8.32-17.23,10.92-35.64,19.45-55.58,24.34-14.49,3.55-28.8,8.57-43.5,10.3-15.26,1.8-30.91.95-46.35.29-19.44-.83-38.03-6.26-56.4-12.41-22.13-7.41-42.59-18.07-61.96-31-1.7-1.13-3.94-2.12-5.91-2.08-15.55.26-31.18,2-46.63,1-35.6-2.31-67.52-14.42-91.88-41.49-15.03-16.7-25.73-36.14-25.02-59.57.57-18.85,14.28-39.03,37.97-38.74,18.92.23,35.41,6.87,50.95,16.28,17.22,10.41,33.78,21.89,50.67,32.84,1.75,1.13,3.81,1.79,5.85,2.73Zm150.2,9.98c-1.32-.04-2.64-.08-3.95-.12-44.14-1.65-87.98-5.96-131.17-15.51-.55,2.68-.78,4.68-1.37,6.56-1.68,5.29-.24,8.88,4.92,11.44,20.11,9.98,40.28,19.91,62.11,25.5,20.6,5.27,41.37,9.98,62.87,9.69,11.6.02,23.2.05,34.8.07,4.86-.36,9.73-.64,14.58-1.11,10.17-.97,20.55-1.06,30.45-3.26,28.98-6.46,57.06-15.66,83.07-30.41,7.54-4.28,9-11.04,3.65-18.33-41.68,8.58-83.56,14.72-126.17,14.46-4.07.38-8.14.77-12.22,1.15-7.19-.04-14.38-.09-21.56-.13Zm26.86,51.64c-1.57,0-3.14-.05-4.7-.02-24.07.51-48.15.3-71.62-5.77-17.93-4.64-35.77-9.77-53.34-15.6-19.65-6.52-37.81-16.4-55.16-27.64-17.3-11.2-34.4-22.72-51.65-33.99-1.73-1.13-3.94-1.54-5.18-2.01,17.19,20.58,34.04,41.61,51.87,61.79,10.82,12.24,22.16,24.45,35.06,34.33,15.51,11.88,32.61,21.57,51.07,28.98,26.54,10.65,53.9,17.31,82.25,18.45,15.37.62,30.97-1.73,46.31-3.88,23.86-3.34,46.4-11.41,67.89-22.16,31.7-15.86,57.41-38.88,79.56-66.4,13.64-16.95,28.55-32.88,42.85-49.3.6-.69.87-1.68,1.29-2.52-.35-.43-.71-.86-1.06-1.29-5.78,3.43-11.74,6.6-17.32,10.34-23.56,15.77-46.29,32.76-72,45.22-38.18,18.51-78.41,28.62-120.62,31.38-1.83.03-3.66.07-5.49.1Zm-38.88-65.12c4.34.46,8.69,1.35,13.03,1.31,9.54-.09,19.08-.64,28.62-1,.9-.12,1.8-.24,2.7-.36,1.32.02,2.64.03,3.95.05,10.67-.39,21.39-.24,32-1.29,18.22-1.79,36.4-4.08,54.53-6.65,11.92-1.69,23.72-4.23,36.56-6.57-1.21-7.17-2-13.47-3.36-19.64-3.39-15.32-6.5-30.73-10.75-45.82-3.1-10.99-7.88-21.5-11.85-32.25-6.5-17.59-14.44-34.41-26.52-48.95-8.07-9.71-23.14-15.17-33.19-10.01-9.56,4.91-19.41,9.31-29.35,13.43-15.6,6.47-31.73,10.97-48.41,4.78-12.66-4.7-24.99-10.37-37.24-16.1-15.75-7.38-28.88-5.23-39.43,8.89-7.87,10.54-14.77,21.96-20.81,33.66-5.15,9.96-9.36,20.62-12.39,31.42-6.18,22.01-11.28,44.33-16.84,66.52-3.61,14.38-3.64,14.52,10.63,16.71,18.77,2.89,37.53,6.01,56.4,8.1,17.17,1.9,34.47,2.56,51.72,3.77Zm178.87,82.38c1.56.16,2.92.56,4.18.38,6.78-.97,13.5-2.63,20.3-3.05,23.27-1.42,46.07-5.54,66.46-16.89,29.61-16.48,51.39-38.77,49-76.38-.81-12.69-8.93-19.97-20.82-16.86-16.03,4.2-29.52,13.16-40.35,25.29-17.02,19.06-32.79,39.23-49.67,58.43-8.75,9.95-18.74,18.81-29.1,29.08Zm-311.44-1.21c.33-.62.67-1.24,1-1.87-1.6-1.68-3.14-3.42-4.8-5.03-6.07-5.91-12.69-11.35-18.18-17.76-16.59-19.38-32.41-39.43-49.2-58.64-11.71-13.4-26.32-23.11-43.55-28.26-3.41-1.02-8.89-2.17-10.59-.46-4.5,4.52-9.6,10.23-10.58,16.11-2.43,14.59,1.12,28.75,9.18,41.34,11.13,17.39,26.34,30.36,44.91,39.2,15.17,7.22,31.46,10.65,48.07,12.43,11.22,1.2,22.5,1.98,33.75,2.94Z" fill="#333"/>
  <path d="m559.59,205c-.9.12-1.8.24-2.7.36-13.88-.1-27.77-.2-41.65-.31-17.25-1.21-34.55-1.86-51.72-3.77-18.87-2.09-37.63-5.22-56.4-8.1-14.27-2.19-14.23-2.34-10.63-16.71,5.56-22.19,10.66-44.5,16.84-66.52,3.03-10.8,7.25-21.45,12.39-31.42,6.04-11.69,12.94-23.12,20.81-33.66,10.55-14.11,23.67-16.26,39.43-8.89,12.25,5.73,24.58,11.4,37.24,16.1,16.68,6.19,32.81,1.69,48.41-4.78,9.93-4.12,19.78-8.52,29.35-13.43,10.05-5.16,25.12.3,33.19,10.01,12.08,14.54,20.02,31.36,26.52,48.95,3.97,10.75,8.75,21.26,11.85,32.25,4.26,15.08,7.37,30.5,10.75,45.82,1.36,6.17,2.16,12.47,3.36,19.64-12.84,2.34-24.64,4.88-36.56,6.57-18.13,2.57-36.31,4.85-54.53,6.65-10.61,1.04-21.33.9-32,1.29-1.32-.02-2.64-.03-3.95-.05Zm-111.63-69.54c3.85,2.82,6.05.28,8.2-2.49,15.02-19.4,20.63-41.54,18.71-65.7-.34-4.27-2.07-8.51-3.7-12.54-.38-.93-3.01-.95-4.6-1.39-.69-.47-1.38-.94-2.07-1.41-2.02,3.34-4.8,6.44-5.93,10.06-3.85,12.27-7.74,24.58-10.43,37.14-2.26,10.57-2.97,21.48-4.13,32.26-.25,2.33-.38,5.66,3.95,4.07Zm183.97,1.13c4.11.56,5.88-1.36,5.6-5.35-.41-5.77-.15-11.71-1.45-17.28-4.19-17.96-8.66-35.88-13.8-53.59-.85-2.93-5.54-4.74-8.46-7.07-1.53.48-4.19.67-4.4,1.48-1.66,6.59-3.59,13.24-4.07,19.98-1.57,21.88,6.7,40.73,19.51,57.83,1.49,1.99,4.66,2.7,7.06,4.01Z" fill="#ab6e3c"/>
  <path d="m559.61,270.07c42.21-2.75,82.43-12.86,120.62-31.38,25.71-12.46,48.43-29.45,72-45.22,5.58-3.73,11.54-6.91,17.32-10.34.35.43.71.86,1.06,1.29-.42.85-.69,1.83-1.29,2.52-14.3,16.42-29.21,32.35-42.85,49.3-22.15,27.53-47.86,50.54-79.56,66.4-21.49,10.75-44.03,18.82-67.89,22.16-15.34,2.15-30.94,4.5-46.31,3.88-28.35-1.14-55.71-7.8-82.25-18.45-18.46-7.41-35.56-17.11-51.07-28.98-12.9-9.88-24.24-22.09-35.06-34.33-17.83-20.17-34.69-41.21-51.87-61.79,1.25.47,3.45.88,5.18,2.01,17.26,11.27,34.35,22.78,51.65,33.99,17.36,11.24,35.51,21.12,55.16,27.64,17.57,5.83,35.41,10.96,53.34,15.6,23.47,6.07,47.55,6.28,71.62,5.77,1.57-.03,3.14.01,4.7.02,1.83-.04,3.66-.07,5.49-.1Z" fill="#ab6e3c"/>
  <path d="m520.65,256.11c-21.5.29-42.27-4.41-62.87-9.69-21.84-5.59-42-15.52-62.11-25.5-5.16-2.56-6.6-6.15-4.92-11.44.6-1.88.82-3.88,1.37-6.56,43.19,9.54,87.03,13.85,131.17,15.51,1.32.04,2.64.08,3.95.11,7.19.04,14.38.09,21.56.13,4.07-.38,8.14-.77,12.22-1.15,42.62.26,84.49-5.88,126.17-14.46,5.35,7.29,3.89,14.06-3.65,18.33-26.01,14.75-54.09,23.95-83.07,30.41-9.9,2.21-20.28,2.29-30.45,3.26-4.85.46-9.72.75-14.58,1.11-11.6-.02-23.2-.05-34.8-.07Z" fill="#864a2b"/>
  <path d="m694.1,287.44c10.36-10.28,20.35-19.14,29.1-29.08,16.88-19.19,32.65-39.37,49.67-58.43,10.83-12.13,24.31-21.09,40.35-25.29,11.9-3.12,20.02,4.17,20.82,16.86,2.39,37.61-19.4,59.9-49,76.38-20.4,11.35-43.19,15.48-66.46,16.89-6.8.41-13.52,2.08-20.3,3.05-1.27.18-2.62-.22-4.18-.38Z" fill="#864a2b"/>
  <path d="m382.67,286.23c-11.25-.97-22.52-1.74-33.75-2.94-16.61-1.78-32.91-5.21-48.07-12.43-18.57-8.84-33.78-21.81-44.91-39.2-8.05-12.59-11.61-26.74-9.18-41.34.98-5.88,6.08-11.58,10.58-16.11,1.7-1.71,7.18-.56,10.59.46,17.23,5.14,31.84,14.86,43.55,28.26,16.79,19.21,32.61,39.26,49.2,58.64,5.49,6.41,12.11,11.85,18.18,17.76,1.66,1.62,3.2,3.35,4.8,5.03-.33.62-.67,1.24-1,1.87Z" fill="#864a2b"/>
  <path d="m515.24,205.06c13.88.1,27.77.2,41.65.31-9.54.36-19.08.92-28.62,1-4.34.04-8.69-.84-13.03-1.31Z" fill="#946844"/>
  <path d="m520.65,256.11c11.6.02,23.2.05,34.8.07-11.6-.02-23.2-.05-34.8-.07Z" fill="#60482c"/>
  <path d="m561.04,217.52c-4.07.38-8.14.77-12.22,1.15,4.07-.38,8.14-.77,12.22-1.15Z" fill="#1d0d02"/>
  <path d="m559.61,270.07c-1.83.03-3.66.07-5.49.1,1.83-.03,3.66-.07,5.49-.1Z" fill="#6d4b2e"/>
  <path d="m559.59,205c1.32.02,2.64.03,3.95.05-1.32-.02-2.64-.03-3.95-.05Z" fill="#946844"/>
  <path d="m527.26,218.54c-1.32-.04-2.64-.07-3.95-.11,1.32.04,2.64.08,3.95.11Z" fill="#1d0d02"/>
  <path d="m613.83,53.3c2.92,2.33,7.61,4.14,8.46,7.07,5.13,17.71,9.61,35.63,13.8,53.59,1.3,5.57,1.04,11.51,1.45,17.28.28,3.99-1.49,5.92-5.6,5.36-.62-3.42-.4-7.31-2.01-10.18-12.75-22.8-15.96-47.6-16.1-73.12Z" fill="#864a2b"/>
  <path d="m447.96,135.46c-4.33,1.59-4.2-1.75-3.95-4.07,1.16-10.78,1.86-21.69,4.13-32.26,2.69-12.55,6.58-24.87,10.43-37.14,1.14-3.62,3.91-6.72,5.93-10.06.69.47,1.38.94,2.07,1.41-.38,9.05.32,18.32-1.38,27.11-2.4,12.4-6.36,24.53-10.07,36.64-1.92,6.26-4.74,12.25-7.15,18.36Z" fill="#864a2b"/>
  <path d="m613.83,53.3c.14,25.52,3.35,50.32,16.1,73.12,1.6,2.87,1.38,6.76,2.01,10.18-2.39-1.31-5.57-2.03-7.06-4.01-12.81-17.1-21.08-35.94-19.51-57.83.48-6.73,2.41-13.39,4.07-19.98.2-.81,2.87-1,4.4-1.48Z" fill="#333"/>
  <path d="m447.96,135.46c2.41-6.11,5.23-12.1,7.15-18.36,3.71-12.11,7.67-24.24,10.07-36.64,1.7-8.8,1.01-18.06,1.38-27.11,1.59.44,4.22.45,4.6,1.39,1.63,4.03,3.36,8.27,3.7,12.54,1.92,24.16-3.69,46.3-18.71,65.7-2.15,2.78-4.36,5.32-8.2,2.49Z" fill="#333"/>
</svg>