<?xml version="1.0" encoding="UTF-8"?>
<svg xmlns="http://www.w3.org/2000/svg" viewBox="0 0 1080 1080">
  <g isolation="isolate">
    <g id="a" data-name="Layer 2">
      <g>
        <g>
          <path d="m689.6,78.93c-61.38-49.79-149.6-49.79-149.6-49.79,0,0-88.23,0-149.6,49.79-41.45,33.63-52.17,218.76-52.17,218.76l9.97,5.71,191.8-28.57,191.8,28.57,9.97-5.71s-10.72-185.13-52.17-218.76Z" fill="#d10000"/>
          <path d="m689.6,78.93c-61.38-49.79-149.6-49.79-149.6-49.79,0,0,38.11,16.11,68.44,50.92,23.22,26.66,30.08,142.41,32.45,185.17.32,5.75,71.12,35.23,71.12,35.23l19.8,2.95,9.97-5.71s-10.72-185.13-52.17-218.76Z" fill="red"/>
          <path d="m438.2,243.91c2.37-42.76,10.15-137.19,33.37-163.85,30.32-34.81,68.43-50.92,68.43-50.92,0,0-88.23,0-149.6,49.79-41.45,33.63-52.17,218.76-52.17,218.76l9.97,5.71,19.8-2.95,363.8,2.95s-72.22-51.19-153.32-66.29c-63.73-11.87-140.6,12.55-140.28,6.8Z" fill="#d20505" mix-blend-mode="multiply"/>
          <path d="m540,251.91s-81.32-2.45-191.8,58.77c0,0-10.74,54.69,0,59.59,10.74,4.9,87.46-59.59,191.8-59.59s181.06,64.49,191.8,59.59c10.74-4.9,0-59.59,0-59.59-110.48-61.22-191.8-58.77-191.8-58.77Z" fill="#ff0505"/>
          <path d="m540,244.63s-81.32-2.45-191.8,58.77c0,0-10.74,54.69,0,59.59,10.74,4.9,87.46-59.59,191.8-59.59s181.06,64.48,191.8,59.59c10.74-4.9,0-59.59,0-59.59-110.48-61.22-191.8-58.77-191.8-58.77Z" fill="#ff0505"/>
          <rect x="515.45" y="14.44" width="49.1" height="24.49" rx="9.93" ry="9.93" fill="#d20505"/>
          <path d="m550.88,18.51c-6.01,0-10.88,3.89-10.88,8.68s4.87,8.68,10.88,8.68,10.88-3.89,10.88-8.68-4.87-8.68-10.88-8.68Z" fill="red"/>
          <path d="m348.02,362.84c1.33-.04,2.61-.03,3.75.09h0c14-3.28,57.54-34.28,118.36-50.2,2.09-.96,3.29-1.51,3.29-1.51,0,0-3.72-35.63,10.11-46.95,13.81-11.31,51.38-19.57,51.47-19.59-19.19.58-92.3,6.35-186.8,58.72,0,0-10.59,53.96-.18,59.44Z" fill="#d10000"/>
        </g>
        <path d="m734.59,334.38c.56,7.76.8,26.79-.61,31.12-1.4,4.33-53.38-29.45-85.63-40.54-32.24-11.09-86.94-24.25-123.66-19.36-36.72,4.89-32.86-1.2-16.17-4.1,31.47-5.47,63.71-9.19,132.35,12.22,45.51,14.2,74.73,35.45,82.63,26.95,7.89-8.5,1.9-24.24,3.8-24.52,5.09-.76,6.93,13.33,7.29,18.22Z" fill="#ff724f" mix-blend-mode="screen"/>
      </g>
    </g>
  </g>
</svg>