<?xml version="1.0" encoding="UTF-8"?>
<svg id="a" data-name="Layer 2" xmlns="http://www.w3.org/2000/svg" viewBox="0 0 1080 1080">
  <path d="m787.14,187.73v12.28c-2.45.73-3.63,1.93-4.45,3.83-3.36,7.77-7.25,15.42-10.83,23.14-4.2,9.06-12.33,14.95-26.33,16.22-.72-.06-1.45-.16-2.18-.16-134.37-.02-268.74-.04-403.11-.02-2.79,0-5.94-.68-8.13,1.32-15.59-3.55-24.33-11.13-28.14-22.18-2.62-7.6-5.64-15.2-11.12-22.15v-13.82c6.73-6.45,11.71-14.5,26.12-13.91,9.81.03,19.65.35,29.43.01,8.32-.29,16.9,1.32,25-.78h330.05c2.97,1.04,6.33.84,9.58.84,15.27,0,30.53-.04,45.79-.07,15.41-.2,20.9,8.49,28.32,15.45Z" fill="#4d4d4d"/>
  <path d="m376.2,170.63c.04-8.16.11-16.33.13-24.5.04-13.53-2.7-27.39.57-40.53,12.3-49.49,64.54-82.97,137.7-85.42,16.92,0,33.84,0,50.76.02,16.24.7,31.72,3.39,46.79,7.78,37.49,10.93,63.16,29.61,78.78,55.76,5.89,9.86,6.66,20.32,10.88,30.3-.08,18.87-.15,37.74-.23,56.62.6.35,1.23.63,1.87.85h-330.05c.94-.24,1.87-.53,2.8-.88Z" fill="#333"/>
</svg>