<?xml version="1.0" encoding="UTF-8"?>
<svg id="a" data-name="Layer 2" xmlns="http://www.w3.org/2000/svg" viewBox="0 0 1080 1080">
  <path d="m408.53,179.24c-13.2-92.08,47.76-127.99,140.31-121.21,46.96,1.74,93.92,29.52,101.21,75.62,1.25,14.84-2.65,33.15,1.22,46.31h-244.82c.7-.19,1.39-.43,2.08-.71Z" fill="#333"/>
  <path d="m708.08,180.99c3.86,4.22,4.56,8.18,4.73,9.83.32,3.16-.44,5.95-1.41,9.53-.82,3-1.73,5.18-2.06,5.98-6.79,16.11-10.19,24.16-16.38,28.03-4.09,2.56-8.03,3.28-10.48,3.27-100.19-.43-200.42-.04-300.63-.16-6.18.92-10.52-.2-13.04-1.14,0,0-15.18-5.67-22.12-41.06-.29-1.47-.87-4.61.01-8.38.36-1.54.85-2.72,1.15-3.36,1.18-1.43,2.81-3.08,4.99-4.58,5.18-3.59,10.49-4.29,13.24-4.44,184.69-.07,319.52-.05,326.26,0,1.19,0,4.2.06,7.74,1.36,3.46,1.28,6.09,3.27,8,5.11Z" fill="#4d4d4d"/>
</svg>