<?xml version="1.0" encoding="UTF-8"?>
<svg id="Layer_2" data-name="Layer 2" xmlns="http://www.w3.org/2000/svg" viewBox="0 0 1080 1080">
  <path d="m787.14,187.73v12.28c-2.46.73-3.63,1.93-4.45,3.83-3.36,7.76-7.25,15.41-10.83,23.13-4.2,9.07-12.33,14.95-26.33,16.22-.73-.05-1.46-.15-2.18-.15-134.37-.02-268.74-.04-403.11-.02-2.79,0-5.95-.68-8.13,1.32-15.6-3.55-24.33-11.13-28.15-22.18-2.62-7.6-5.64-15.2-11.11-22.15v-13.82c6.73-6.45,11.71-14.5,26.12-13.91,9.81.03,19.65.35,29.43.01,9.27-.32,18.89,1.72,27.79-1.66.05-8.17.11-16.34.13-24.5.04-13.53-2.7-27.39.57-40.53,12.3-49.49,64.54-82.97,137.71-85.42,16.92,0,33.84,0,50.76.01,16.24.7,31.72,3.39,46.79,7.78,37.49,10.92,63.16,29.61,78.79,55.76,5.89,9.86,6.65,20.31,10.87,30.29-.07,18.87-.15,37.75-.22,56.62,3.38,1.99,7.49,1.69,11.45,1.69,15.26,0,30.52-.04,45.78-.07,15.41-.2,20.9,8.49,28.32,15.45Z"/>
</svg>