<?xml version="1.0" encoding="UTF-8"?>
<svg id="a" data-name="Layer 2" xmlns="http://www.w3.org/2000/svg" viewBox="0 0 1080 1080">
  <path d="m411.8,156.34c1.98-10.2,3.56-19.82,5.76-29.29,2.83-12.19,5.75-24.39,9.39-36.36,4.19-13.77,10.38-26.69,18.47-38.71,10.21-15.18,25.23-20.97,42.57-9.83,3.41,2.19,7.25,3.73,10.93,5.51,14.21,6.86,27.28,2.93,40.02-4.24,6.05-3.4,11.83-7.07,19.36-7,9.8.09,17.07,4.57,22.64,11.88,12.56,16.47,20.34,35.31,25.35,55.21,3.47,13.77,5.78,27.82,8.6,41.76.71,3.5,1.35,7.01,2.19,11.38,4.52-2.74,8.88-5.31,13.17-7.98,9.81-6.13,19.4-12.65,29.44-18.37,8.09-4.61,16.92-6.89,26.53-6.63,9.18.25,20.58,8.91,22.15,20.44,2.27,16.67-4.8,29.54-14.93,41.24-12.06,13.92-27.95,21.79-45.85,24.67-12.17,1.96-24.66,2.4-37.02,2.54-6.59.08-11.98,1.79-17.43,5.24-10.85,6.88-22.46,12.26-35.02,15.34-9.13,2.24-18.15,5.4-27.41,6.49-9.61,1.13-19.48.6-29.21.18-12.25-.53-23.96-3.94-35.54-7.82-13.94-4.67-26.84-11.39-39.04-19.53-1.07-.72-2.48-1.33-3.73-1.31-9.8.17-19.64,1.26-29.38.63-22.43-1.45-42.54-9.08-57.89-26.14-9.47-10.52-16.21-22.77-15.76-37.54.36-11.88,9-24.59,23.92-24.41,11.92.14,22.31,4.33,32.11,10.25,10.85,6.56,21.28,13.79,31.93,20.69,1.1.72,2.4,1.13,3.68,1.72Zm94.64,6.29c-.83-.02-1.66-.05-2.49-.07-27.81-1.04-55.44-3.76-82.65-9.77-.34,1.69-.49,2.95-.86,4.13-1.06,3.34-.15,5.6,3.1,7.21,12.67,6.29,25.38,12.55,39.14,16.07,12.98,3.32,26.07,6.29,39.61,6.1,7.31.01,14.62.03,21.92.04,3.06-.23,6.13-.41,9.19-.7,6.41-.61,12.95-.67,19.19-2.06,18.26-4.07,35.95-9.87,52.34-19.16,4.75-2.69,5.67-6.96,2.3-11.55-26.26,5.41-52.65,9.27-79.5,9.11-2.57.24-5.13.48-7.7.72l-13.59-.08Zm16.93,32.54c-.99,0-1.98-.03-2.96-.01-15.17.32-30.34.19-45.13-3.64-11.3-2.92-22.54-6.15-33.61-9.83-12.38-4.11-23.82-10.34-34.76-17.42-10.9-7.06-21.67-14.31-32.55-21.42-1.09-.71-2.48-.97-3.27-1.27,10.83,12.97,21.45,26.22,32.69,38.93,6.82,7.71,13.96,15.41,22.09,21.63,9.77,7.48,20.54,13.59,32.18,18.26,16.72,6.71,33.96,10.91,51.83,11.63,9.68.39,19.51-1.09,29.18-2.44,15.04-2.11,29.24-7.19,42.78-13.96,19.98-10,36.18-24.5,50.13-41.84,8.59-10.68,17.99-20.72,27-31.06.38-.44.55-1.06.81-1.59-.22-.27-.44-.54-.67-.82-3.64,2.16-7.4,4.16-10.92,6.51-14.85,9.94-29.17,20.64-45.36,28.49-24.06,11.66-49.4,18.04-76,19.77-1.15.02-2.3.04-3.46.07Zm-24.5-41.03c2.74.29,5.48.85,8.21.82,6.01-.05,12.02-.4,18.03-.63.57-.08,1.14-.15,1.7-.23.83.01,1.66.02,2.49.03,6.72-.25,13.48-.15,20.16-.81,11.48-1.13,22.94-2.57,34.36-4.19,7.51-1.06,14.95-2.66,23.04-4.14-.76-4.52-1.26-8.49-2.12-12.37-2.13-9.65-4.09-19.36-6.78-28.87-1.95-6.92-4.97-13.55-7.47-20.32-4.1-11.08-9.1-21.68-16.71-30.84-5.09-6.12-14.58-9.56-20.91-6.31-6.03,3.09-12.23,5.87-18.49,8.46-9.83,4.07-19.99,6.91-30.5,3.01-7.98-2.96-15.75-6.53-23.46-10.15-9.93-4.65-18.2-3.29-24.84,5.6-4.96,6.64-9.3,13.84-13.11,21.21-3.24,6.28-5.9,12.99-7.81,19.8-3.89,13.87-7.11,27.93-10.61,41.91-2.27,9.06-2.3,9.15,6.7,10.53,11.83,1.82,23.65,3.79,35.54,5.11,10.82,1.2,21.72,1.61,32.59,2.37Zm112.7,51.91c.99.1,1.84.35,2.64.24,4.27-.61,8.5-1.66,12.79-1.92,14.66-.89,29.03-3.49,41.88-10.64,18.65-10.39,32.38-24.43,30.88-48.13-.51-7.99-5.62-12.58-13.12-10.62-10.1,2.65-18.6,8.29-25.42,15.93-10.72,12.01-20.66,24.72-31.3,36.82-5.51,6.27-11.81,11.85-18.34,18.33Zm-196.24-.76c.21-.39.42-.78.63-1.18-1.01-1.06-1.98-2.15-3.02-3.17-3.83-3.73-8-7.15-11.46-11.19-10.46-12.21-20.42-24.84-31-36.95-7.38-8.44-16.59-14.56-27.44-17.81-2.15-.64-5.6-1.37-6.67-.29-2.83,2.85-6.05,6.44-6.67,10.15-1.53,9.2.71,18.12,5.78,26.05,7.01,10.96,16.6,19.13,28.3,24.7,9.56,4.55,19.82,6.71,30.29,7.83,7.07.76,14.17,1.25,21.26,1.85Z" fill="#333"/>
  <path d="m526.82,154.1c-.57.08-1.14.15-1.7.23-8.75-.06-17.5-.13-26.24-.19-10.87-.76-21.77-1.17-32.59-2.37-11.89-1.32-23.71-3.29-35.54-5.11-8.99-1.38-8.97-1.47-6.7-10.53,3.51-13.98,6.72-28.04,10.61-41.91,1.91-6.8,4.57-13.52,7.81-19.8,3.81-7.37,8.15-14.57,13.11-21.21,6.64-8.89,14.92-10.25,24.84-5.6,7.72,3.61,15.48,7.18,23.46,10.15,10.51,3.9,20.67,1.06,30.5-3.01,6.26-2.6,12.47-5.37,18.49-8.46,6.33-3.25,15.83.19,20.91,6.31,7.61,9.16,12.61,19.76,16.71,30.84,2.5,6.77,5.51,13.4,7.47,20.32,2.68,9.5,4.64,19.22,6.78,28.87.86,3.89,1.36,7.86,2.12,12.37-8.09,1.47-15.53,3.07-23.04,4.14-11.42,1.62-22.88,3.06-34.36,4.19-6.68.66-13.44.57-20.16.81-.83-.01-1.66-.02-2.49-.03Zm-70.34-43.82c2.42,1.78,3.81.18,5.17-1.57,9.46-12.22,13-26.17,11.79-41.4-.21-2.69-1.3-5.36-2.33-7.9-.24-.59-1.89-.6-2.9-.87-.43-.3-.87-.59-1.3-.89-1.27,2.1-3.02,4.06-3.74,6.34-2.43,7.73-4.88,15.49-6.57,23.4-1.43,6.66-1.87,13.53-2.6,20.33-.16,1.47-.24,3.57,2.49,2.57Zm115.92.72c2.59.35,3.71-.86,3.53-3.37-.26-3.64-.09-7.38-.91-10.89-2.64-11.32-5.46-22.61-8.69-33.77-.53-1.84-3.49-2.99-5.33-4.45-.96.3-2.64.42-2.77.93-1.05,4.15-2.26,8.34-2.56,12.59-.99,13.79,4.22,25.66,12.29,36.44.94,1.25,2.94,1.7,4.45,2.53Z" fill="#ab6e3c"/>
  <path d="m526.83,195.1c26.6-1.74,51.94-8.11,76-19.77,16.2-7.85,30.52-18.56,45.36-28.49,3.52-2.35,7.27-4.35,10.92-6.51.22.27.44.54.67.82-.27.53-.43,1.15-.81,1.59-9.01,10.34-18.41,20.38-27,31.06-13.95,17.34-30.15,31.85-50.13,41.84-13.54,6.78-27.74,11.86-42.78,13.96-9.66,1.35-19.5,2.83-29.18,2.44-17.86-.72-35.11-4.91-51.83-11.63-11.63-4.67-22.41-10.78-32.18-18.26-8.13-6.22-15.27-13.92-22.09-21.63-11.24-12.71-21.86-25.97-32.69-38.93.78.29,2.17.55,3.27,1.27,10.87,7.1,21.65,14.36,32.55,21.42,10.94,7.08,22.38,13.31,34.76,17.42,11.07,3.68,22.31,6.91,33.61,9.83,14.79,3.82,29.96,3.96,45.13,3.64.99-.02,1.98,0,2.96.01,1.15-.02,2.3-.04,3.46-.07Z" fill="#ab6e3c"/>
  <path d="m502.28,186.3c-13.54.19-26.63-2.78-39.61-6.1-13.76-3.52-26.47-9.78-39.14-16.07-3.25-1.61-4.16-3.88-3.1-7.21.38-1.18.52-2.44.86-4.13,27.21,6.01,54.84,8.73,82.65,9.77.83.02,1.66.05,2.49.07,4.53.03,9.06.05,13.59.08,2.57-.24,5.13-.48,7.7-.72,26.85.16,53.24-3.7,79.5-9.11,3.37,4.59,2.45,8.86-2.3,11.55-16.39,9.29-34.08,15.09-52.34,19.16-6.24,1.39-12.78,1.44-19.19,2.06-3.06.29-6.13.47-9.19.7-7.31-.01-14.62-.03-21.92-.04Z" fill="#864a2b"/>
  <path d="m611.57,206.04c6.53-6.48,12.82-12.06,18.34-18.33,10.64-12.09,20.57-24.8,31.3-36.82,6.82-7.64,15.32-13.29,25.42-15.93,7.5-1.96,12.61,2.63,13.12,10.62,1.51,23.7-12.22,37.74-30.88,48.13-12.85,7.15-27.22,9.75-41.88,10.64-4.29.26-8.52,1.31-12.79,1.92-.8.11-1.65-.14-2.64-.24Z" fill="#864a2b"/>
  <path d="m415.34,205.28c-7.09-.61-14.19-1.1-21.26-1.85-10.47-1.12-20.73-3.28-30.29-7.83-11.7-5.57-21.29-13.74-28.3-24.7-5.08-7.93-7.32-16.85-5.78-26.05.62-3.71,3.83-7.3,6.67-10.15,1.07-1.08,4.53-.35,6.67.29,10.86,3.24,20.06,9.36,27.44,17.81,10.58,12.1,20.55,24.74,31,36.95,3.46,4.04,7.63,7.46,11.46,11.19,1.05,1.02,2.02,2.11,3.02,3.17-.21.39-.42.78-.63,1.18Z" fill="#864a2b"/>
  <path d="m498.87,154.14c8.75.06,17.49.13,26.24.19-6.01.23-12.02.58-18.03.63-2.73.02-5.47-.53-8.21-.82Z" fill="#946844"/>
  <path d="m502.28,186.3c7.31.02,14.62.03,21.92.04-7.31-.02-14.62-.03-21.92-.04Z" fill="#60482c"/>
  <path d="m527.73,161.99c-2.57.24-5.13.48-7.7.72,2.57-.24,5.13-.48,7.7-.72Z" fill="#1d0d02"/>
  <path d="m526.83,195.1c-1.15.02-2.3.04-3.46.07,1.15-.02,2.3-.04,3.46-.07Z" fill="#6d4b2e"/>
  <path d="m526.82,154.1c.83.01,1.66.02,2.49.03-.83-.01-1.66-.02-2.49-.03Z" fill="#946844"/>
  <path d="m506.44,162.63c-.83-.02-1.66-.05-2.49-.07.83.02,1.66.05,2.49.07Z" fill="#1d0d02"/>
  <path d="m560.99,58.51c1.84,1.47,4.8,2.61,5.33,4.45,3.23,11.16,6.05,22.45,8.69,33.77.82,3.51.65,7.25.91,10.89.18,2.52-.94,3.73-3.53,3.37-.39-2.15-.25-4.61-1.26-6.41-8.03-14.37-10.05-29.99-10.14-46.07Z" fill="#864a2b"/>
  <path d="m456.48,110.28c-2.73,1-2.65-1.1-2.49-2.57.73-6.79,1.18-13.67,2.6-20.33,1.69-7.91,4.14-15.67,6.57-23.4.72-2.28,2.46-4.24,3.74-6.34.43.3.87.59,1.3.89-.24,5.71.2,11.54-.87,17.08-1.51,7.81-4.01,15.45-6.35,23.09-1.21,3.95-2.99,7.72-4.51,11.57Z" fill="#864a2b"/>
  <path d="m560.99,58.51c.09,16.08,2.11,31.71,10.14,46.07,1.01,1.81.87,4.26,1.26,6.41-1.51-.82-3.51-1.28-4.45-2.53-8.07-10.77-13.28-22.65-12.29-36.44.3-4.24,1.52-8.43,2.56-12.59.13-.51,1.81-.63,2.77-.93Z" fill="#333"/>
  <path d="m456.48,110.28c1.52-3.85,3.3-7.62,4.51-11.57,2.34-7.63,4.84-15.27,6.35-23.09,1.07-5.54.64-11.38.87-17.08,1,.28,2.66.29,2.9.87,1.03,2.54,2.12,5.21,2.33,7.9,1.21,15.22-2.32,29.17-11.79,41.4-1.35,1.75-2.75,3.35-5.17,1.57Z" fill="#333"/>
</svg>