<?xml version="1.0" encoding="UTF-8"?>
<svg xmlns="http://www.w3.org/2000/svg" viewBox="0 0 1080 1080">
  <g isolation="isolate">
    <g id="a" data-name="Layer 2">
      <g>
        <g>
          <path d="m621.84,80.42c-38.78-31.46-94.53-31.46-94.53-31.46,0,0-55.75,0-94.53,31.46-26.19,21.25-32.97,138.23-32.97,138.23l6.3,3.61,121.2-18.05,121.2,18.05,6.3-3.61s-6.77-116.98-32.97-138.23Z" fill="#e6e6e6"/>
          <path d="m527.31,185.13s-51.39-1.55-121.2,37.14c0,0-6.79,34.56,0,37.65,6.79,3.09,55.27-37.65,121.2-37.65s114.41,40.75,121.2,37.65c6.79-3.09,0-37.65,0-37.65-69.81-38.68-121.2-37.14-121.2-37.14Z" fill="#ff0505"/>
          <path d="m621.84,80.42c-38.78-31.46-94.53-31.46-94.53-31.46,0,0,24.08,10.18,43.24,32.18,14.67,16.84,19.01,89.99,20.51,117.01.2,3.64,44.94,22.26,44.94,22.26l12.51,1.86,6.3-3.61s-6.77-116.98-32.97-138.23Z" fill="red"/>
          <path d="m432.78,80.42c38.78-31.46,94.53-31.46,94.53-31.46,0,0-24.08,10.18-43.24,32.18-14.67,16.84-19.01,89.99-20.51,117.01-.2,3.64-44.94,22.26-44.94,22.26l-12.51,1.86-6.3-3.61s6.77-116.98,32.97-138.23Z" fill="red"/>
          <rect x="511.8" y="39.68" width="31.03" height="15.47" rx="6.28" ry="6.28" fill="red"/>
          <path d="m534.19,42.25c-3.8,0-6.88,2.46-6.88,5.48s3.08,5.48,6.88,5.48,6.88-2.46,6.88-5.48-3.08-5.48-6.88-5.48Z" fill="#e6e6e6"/>
        </g>
        <path d="m651.21,241.75c.19,2.67.08,6.03-.09,11.47-.04,1.51.24,7.38-4.99,6.7s-29.98-17.02-50.35-24.03c-20.37-7.01-54.93-15.32-78.14-12.23-23.2,3.09-20.76-.76-10.22-2.59,19.88-3.45,40.26-5.81,83.63,7.72,28.75,8.97,47.22,22.4,52.21,17.03,4.99-5.37,1.2-15.31,2.4-15.49,3.21-.48,5.32,8.33,5.54,11.42Z" fill="#e6e6e6" mix-blend-mode="screen"/>
      </g>
    </g>
  </g>
</svg>