<?xml version="1.0" encoding="UTF-8"?>
<svg id="a" data-name="Layer 2" xmlns="http://www.w3.org/2000/svg" viewBox="0 0 1080 1080">
  <path d="m619.32,62.03c-27.28-19.77-76.26-18.04-92.71-18.04s-65.44-1.72-92.71,18.04c-33.79,24.49-30.66,137.62-30.66,137.62,0,0,37.6,17.7,123.38,17.7s123.38-17.7,123.38-17.7c0,0,3.13-113.13-30.66-137.62Z" fill="#75260c"/>
  <path d="m403.16,178.67v26.62s55.3,33.8,123.34,33.8,123.34-29.43,123.34-29.43v-27.94s-48.79,16.6-123.23,16.6-123.45-19.64-123.45-19.64Z" fill="#1a1a1a"/>
  <path d="m683.61,171.16c-11.26-3.93-26.47,9.06-59.88,26.52-25.59,13.37-60.65,23.52-97.24,23.52s-78.67-12.32-104.77-29c-30.28-19.34-40.86-24.98-52.12-21.04-7.66,2.68-1.62,26.37,18.94,42.48,20.56,16.11,90.7,30.29,138.06,30.29s117.5-14.18,138.06-30.29c20.56-16.11,26.6-39.8,18.94-42.48Z" fill="#91513d"/>
  <path d="m588.09,56.76c-23.66-2.09-43.92,8.38-45.24,23.37-1.32,14.99,16.79,28.84,40.45,30.93,23.66,2.09,43.92-8.38,45.24-23.37,1.32-14.99-16.79-28.84-40.45-30.93Z" fill="#91513d"/>
  <path d="m399.11,209.1c-16.79-13.16-23.89-31.36-21.76-39.06-2.7-.13-5.21.24-7.75,1.13-7.66,2.68-1.62,26.37,18.94,42.48,20.56,16.11,90.7,30.29,138.06,30.29,41.4,0,101.27-11.06,128.88-24.73-30.39,11.5-81.62,20.18-118.31,20.18-47.37,0-117.5-14.18-138.06-30.29Z" fill="#91513d"/>
</svg>