<?xml version="1.0" encoding="UTF-8"?>
<svg xmlns="http://www.w3.org/2000/svg" viewBox="0 0 1080 1080">
  <g isolation="isolate">
    <g id="a" data-name="Layer 2">
      <g>
        <path d="m687.13,39.03c-43.28-31.37-121.02-28.63-147.13-28.63s-103.84-2.74-147.13,28.63c-53.62,38.86-48.66,218.39-48.66,218.39,0,0,59.67,28.08,195.78,28.08s195.78-28.08,195.78-28.08c0,0,4.97-179.52-48.66-218.39Z" fill="#75260c"/>
        <path d="m344.1,224.14v42.25s87.76,53.63,195.72,53.63,195.72-46.7,195.72-46.7v-44.34s-77.42,26.34-195.54,26.34-195.9-31.16-195.9-31.16Z" fill="#1a1a1a"/>
        <path d="m475.48,214.84c-63.32-36.26-74.14-152.83-16.11-199.99-23.99,3.87-48.29,10.99-66.49,24.18-51.1,37.03-49,201.67-48.68,217.1,2.84,1.56,5.81,3.15,8.88,4.76,21.12,7.52,80.77,38.52,186.93,38.52,136.11,0,195.78-42.01,195.78-42.01,0,0,.05-1.96.09-5.38-7.36-.91-16.55-12.42-37.97-11.38-83.85,4.06-152.7,14.11-222.43-25.82Z" fill="#c4bf81" mix-blend-mode="multiply"/>
        <path d="m789.15,212.22c-17.88-6.24-42,14.37-95.02,42.09-40.61,21.22-96.25,37.33-154.3,37.33s-124.84-19.56-166.26-46.02c-48.05-30.7-64.83-39.64-82.71-33.39-12.15,4.25-2.57,41.84,30.06,67.41,32.63,25.57,143.92,48.07,219.09,48.07s186.46-22.5,219.09-48.07c32.63-25.57,42.21-63.16,30.06-67.41Z" fill="#91513d"/>
        <path d="m637.56,30.68c-37.55-3.31-69.7,13.29-71.79,37.08-2.1,23.79,26.64,45.77,64.19,49.08,37.55,3.31,69.69-13.29,71.79-37.08,2.1-23.79-26.64-45.77-64.19-49.08Z" fill="#91513d"/>
        <g mix-blend-mode="multiply">
          <path d="m337.68,272.41c-26.65-20.88-37.91-49.77-34.52-61.98-4.29-.21-8.27.38-12.3,1.79-12.15,4.25-2.57,41.84,30.06,67.41,32.63,25.57,143.92,48.07,219.09,48.07,65.69,0,160.71-17.54,204.52-39.25-48.23,18.25-129.52,32.03-187.75,32.03-75.17,0-186.46-22.5-219.09-48.07Z" fill="#c4bf81"/>
        </g>
      </g>
    </g>
  </g>
</svg>