<?xml version="1.0" encoding="UTF-8"?>
<svg id="a" data-name="Layer 2" xmlns="http://www.w3.org/2000/svg" viewBox="0 0 1080 1080">
  <path d="m529.2,209.43c-122.56,0-223.15-23.64-233.88-53.8l6.17,32.98c2.88,15.37,13.33,28.22,27.82,34.09,28.42,11.52,86.95,26.37,199.88,26.37s171.47-14.85,199.88-26.37c14.49-5.88,24.95-18.72,27.82-34.09l6.17-32.98c-10.73,30.16-111.31,53.8-233.88,53.8Z" fill="#b26d02"/>
  <path d="m529.2,110.49c-129.72,0-234.88,26.48-234.88,59.14s105.16,59.14,234.88,59.14,234.88-26.48,234.88-59.14-105.16-59.14-234.88-59.14Zm0,107.97c-147.44,0-224.56-31.79-224.56-48.83s77.13-48.83,224.56-48.83,224.56,31.79,224.56,48.83-77.13,48.83-224.56,48.83Z" fill="#d60000"/>
  <path d="m529.2,101.46c-129.72,0-234.88,26.48-234.88,59.14s105.16,59.14,234.88,59.14,234.88-26.48,234.88-59.14-105.16-59.14-234.88-59.14Zm0,107.97c-147.44,0-224.56-31.79-224.56-48.83s77.13-48.83,224.56-48.83,224.56,31.79,224.56,48.83-77.13,48.83-224.56,48.83Z" fill="#ebf3ef"/>
  <path d="m529.2,91.15c-129.72,0-234.88,26.48-234.88,59.14s105.16,59.14,234.88,59.14,234.88-26.48,234.88-59.14-105.16-59.14-234.88-59.14Z" fill="#ffa61d"/>
  <path d="m600.31,104.23c-15.45-4.84-154.46,25.47-154.46,25.47-91.95-3.43-136.64,7.73-142.74,14.88-6.1,7.15,4.38,19.49,37.04,37.35,32.66,17.85,161.53,20.43,161.53,20.43l120.55-38.93s-6.47-54.36-21.92-59.2Z" fill="#b26d02"/>
  <path d="m529.2,91.15c-129.72,0-234.88,26.48-234.88,59.14s105.16,59.14,234.88,59.14,234.88-26.48,234.88-59.14-105.16-59.14-234.88-59.14Zm0,107.97c-147.44,0-224.56-31.79-224.56-48.83s77.13-48.83,224.56-48.83,224.56,31.79,224.56,48.83-77.13,48.83-224.56,48.83Z" fill="#d60000"/>
  <path d="m529.2,2.22c-41.1,0-93.04,161.21-93.04,161.21,0,0,21.41,11.04,93.04,11.04s93.04-11.04,93.04-11.04c0,0-51.94-161.21-93.04-161.21Z" fill="#ffa61d"/>
  <path d="m307.75,178.93c-4.92,0-8.91,4.63-8.91,10.33s3.99,10.33,8.91,10.33,8.91-4.63,8.91-10.33-3.99-10.33-8.91-10.33Z" fill="#ffa61d"/>
  <path d="m303.11,176.88c-6.27,0-11.36,5.09-11.36,11.36s5.09,11.36,11.36,11.36,11.36-5.09,11.36-11.36-5.09-11.36-11.36-11.36Z" fill="#ebf3ef"/>
  <path d="m355,199.48c-7.25,0-13.13,5.32-13.13,11.89s5.88,11.89,13.13,11.89,13.13-5.32,13.13-11.89-5.88-11.89-13.13-11.89Z" fill="#ffa61d"/>
  <path d="m416.26,211.37c-7.15,0-12.95,5.32-12.95,11.89s5.8,11.89,12.95,11.89,12.95-5.32,12.95-11.89-5.8-11.89-12.95-11.89Z" fill="#ffa61d"/>
  <path d="m487.49,218.26c-7.33,0-13.27,5.32-13.27,11.89s5.94,11.89,13.27,11.89,13.27-5.32,13.27-11.89-5.94-11.89-13.27-11.89Z" fill="#ffa61d"/>
  <path d="m568,218.26c-7.19,0-13.01,5.32-13.01,11.89s5.82,11.89,13.01,11.89,13.01-5.32,13.01-11.89-5.82-11.89-13.01-11.89Z" fill="#ffa61d"/>
  <path d="m638.7,212.06c-7.14,0-12.93,5.32-12.93,11.89s5.79,11.89,12.93,11.89,12.93-5.32,12.93-11.89-5.79-11.89-12.93-11.89Z" fill="#ffa61d"/>
  <path d="m699.46,201.1c-7.16,0-12.97,5.32-12.97,11.89s5.81,11.89,12.97,11.89,12.97-5.32,12.97-11.89-5.81-11.89-12.97-11.89Z" fill="#ffa61d"/>
  <ellipse cx="748.57" cy="192.13" rx="6.44" ry="10.23" fill="#ffa61d"/>
  <circle cx="358.06" cy="210.95" r="11.36" fill="#ebf3ef"/>
  <path d="m418.78,210.95c-6.27,0-11.36,5.09-11.36,11.36s5.09,11.36,11.36,11.36,11.36-5.09,11.36-11.36-5.09-11.36-11.36-11.36Z" fill="#ebf3ef"/>
  <path d="m490.32,218.26c-6.27,0-11.36,5.09-11.36,11.36s5.09,11.36,11.36,11.36,11.36-5.09,11.36-11.36-5.09-11.36-11.36-11.36Z" fill="#ebf3ef"/>
  <path d="m756.94,176.88c-6.27,0-11.36,5.09-11.36,11.36s5.08,11.36,11.36,11.36,11.36-5.09,11.36-11.36-5.09-11.36-11.36-11.36Z" fill="#ebf3ef"/>
  <circle cx="702" cy="210.95" r="11.36" fill="#ebf3ef"/>
  <circle cx="641.28" cy="222.31" r="11.36" fill="#ebf3ef"/>
  <path d="m570.59,218.26c-6.27,0-11.36,5.09-11.36,11.36s5.09,11.36,11.36,11.36,11.36-5.09,11.36-11.36-5.09-11.36-11.36-11.36Z" fill="#ebf3ef"/>
  <path d="m507.73,153.03c-10.03-18.81,17.2-131.82,21.87-150.76-.13,0-.27-.05-.4-.05-41.1,0-93.04,161.21-93.04,161.21,0,0,21.41,11.04,93.04,11.04,43.39,0,68.33-4.05,81.27-7.25-.33.02-91.8,6.31-102.74-14.19Z" fill="#b26d02"/>
</svg>