<?xml version="1.0" encoding="UTF-8"?>
<svg id="a" data-name="Layer 2" xmlns="http://www.w3.org/2000/svg" viewBox="0 0 1080 1080">
  <path d="m682.42,118.08c-10.41,0-151.56,20.84-151.57,20.84,0,0-141.16-20.84-151.57-20.84-39.49,0-32.79,140.4,151.57,140.4h0c184.36,0,191.05-140.4,151.57-140.4Z" fill="#91513d"/>
  <path d="m586.99,34.72c-6.58-2.19-42.78,8.04-56.14,9.14-13.36-1.1-49.55-11.33-56.14-9.14-6.58,2.19-34,127.24-32.91,132.73,1.1,5.48,32.2,25.23,89.04,25.23h0c56.85,0,87.95-19.74,89.04-25.23,1.1-5.48-26.33-130.53-32.91-132.73Z" fill="#75260c"/>
  <path d="m581.19,43.43c-17.73,3.17,7.31,143.21,19.21,137.06,11.9-6.15,12.73-9.18,3.55-54.55-9.18-45.37-22.76-82.51-22.76-82.51Z" fill="#91513d"/>
  <path d="m530.85,168.17h0c-46.99,0-76.33-13.48-85.73-21.25-2.25,11.32-3.57,19.23-3.31,20.52,1.1,5.48,32.2,25.23,89.04,25.23h0c56.85,0,87.95-19.74,89.04-25.23.26-1.29-1.07-9.2-3.31-20.52-9.4,7.78-38.74,21.25-85.73,21.25Z" fill="#0b0b0b"/>
  <path d="m513.14,161.95c-7.27-25.55,2.54-106.54,2.54-106.54l-40.96-20.7c-6.58,2.19-34,127.24-32.91,132.73,1.1,5.48,32.2,25.23,89.04,25.23h0c27.8,0,49.4-4.73,64.39-10.2-1.21.08-74.88,4.81-82.1-20.53Z" fill="#552710"/>
  <path d="m482.41,156.58c-1.2-.27-7.78,6.58-9.94,16.34-2.16,9.76-.32,14.24,3,14.98,3.33.74,6.88-2.55,9.05-12.31,2.16-9.76-.1-18.56-2.11-19.01Z" fill="#d5deda"/>
  <path d="m456.48,144.33c-1.19-.32-8.05,6.24-10.62,15.9-2.58,9.66-.93,14.22,2.36,15.1,3.29.88,6.99-2.26,9.56-11.92,2.58-9.66.69-18.55-1.3-19.08Z" fill="#d5deda"/>
  <path d="m513.14,161.95c-1.23-.14-7.02,7.38-8.12,17.31-1.1,9.94,1.21,14.2,4.6,14.57,3.39.37,6.57-3.28,7.67-13.21,1.1-9.94-2.1-18.44-4.15-18.67Z" fill="#d5deda"/>
  <path d="m575.31,157.1c-2.01.44-4.27,9.25-2.11,19.01,2.16,9.76,5.72,13.05,9.05,12.31,3.33-.74,5.16-5.22,3-14.98-2.16-9.76-8.73-16.6-9.94-16.34Z" fill="#d5deda"/>
  <path d="m601.25,146.77c-1.99.53-3.87,9.42-1.3,19.08,2.58,9.66,6.27,12.79,9.56,11.92,3.29-.88,4.94-5.44,2.36-15.09-2.58-9.66-9.43-16.22-10.62-15.9Z" fill="#d5deda"/>
  <path d="m546.31,162.85c-2.04.23-5.24,8.73-4.15,18.67,1.1,9.94,4.28,13.59,7.67,13.21,3.39-.37,5.7-4.63,4.6-14.57-1.1-9.94-6.89-17.45-8.12-17.31Z" fill="#d5deda"/>
  <path d="m452.72,161.08c-1.74-.67-6.84-5.22-6.84-5.22l-2.76,7.21s4.65,4.38,6.24,4.99c2.06.79,8.36.61,8.36.61l2.76-7.21s-5.85.35-7.76-.38Z" fill="#0b0b0b"/>
  <path d="m479.21,172.96c-1.82-.41-7.51-4.19-7.51-4.19l-1.71,7.53s5.23,3.67,6.89,4.05c2.15.49,8.36-.59,8.36-.59l1.71-7.53s-5.74,1.18-7.73.73Z" fill="#0b0b0b"/>
  <path d="m512.5,178.38c-1.85-.23-7.89-3.42-7.89-3.42l-.95,7.66s5.57,3.13,7.26,3.34c2.19.27,8.26-1.42,8.26-1.42l.95-7.66s-5.59,1.75-7.62,1.5Z" fill="#0b0b0b"/>
  <path d="m548.67,180.03c-1.86.11-8.38-1.93-8.38-1.93l.46,7.71s6.04,2.07,7.74,1.97c2.2-.13,7.86-2.9,7.86-2.9l-.46-7.71s-5.18,2.74-7.22,2.86Z" fill="#0b0b0b"/>
  <path d="m579.41,175.19c-1.83.36-8.56-.8-8.56-.8l1.47,7.58s6.26,1.25,7.94.93c2.16-.42,7.41-3.91,7.41-3.91l-1.47-7.58s-4.77,3.4-6.78,3.79Z" fill="#0b0b0b"/>
  <path d="m605.7,163.72c-1.76.61-8.59.4-8.59.4l2.52,7.3s6.38.36,7.99-.19c2.08-.72,6.79-4.91,6.79-4.91l-2.52-7.3s-4.25,4.03-6.19,4.7Z" fill="#0b0b0b"/>
  <path d="m677.38,118.3c0,.89,13.13,7.82,12.93,22.67-.23,17.23-8.87,43.39-33.77,65.11-20.08,17.52-58.18,38.39-125.69,38.39-87.46,0-125.71-29.5-142.39-54.25-18.27-27.11-16.21-56.28-14.02-61.69,3.83-9.47,14.17-8.63,14.32-9.5.14-.87-12.48-3.61-17.3,8.3-2.43,5.98-4.92,36.13,14.33,64.7,17.12,25.4,56.18,55.68,145.06,55.68,68.5,0,107.31-21.31,127.8-39.19,25.71-22.43,35.09-49.6,34.87-67.54-.22-18.45-16.15-23.56-16.15-22.67Z" fill="#6a2400"/>
  <path d="m538.13,42.07c-4.8,1.15-9.76,1.15-14.56,0-14.09-3.38-44.13-10.13-48.86-7.35-6.22,3.66,56.13,42.04,56.14,42.05h0s0,0,0,0h0s62.35-38.39,56.14-42.05c-4.73-2.78-34.77,3.96-48.86,7.35Z" fill="#91513d"/>
</svg>