<?xml version="1.0" encoding="UTF-8"?>
<svg xmlns="http://www.w3.org/2000/svg" xmlns:xlink="http://www.w3.org/1999/xlink" viewBox="0 0 1080 1080">
  <defs>
    <linearGradient id="b" x1="331.2" y1="-76.4" x2="331.2" y2="70.5" gradientUnits="userSpaceOnUse">
      <stop offset="0" stop-color="#878787"/>
      <stop offset=".26" stop-color="#898a8a"/>
      <stop offset=".46" stop-color="#929493"/>
      <stop offset=".64" stop-color="#a1a4a3"/>
      <stop offset=".82" stop-color="#b6bcb9"/>
      <stop offset=".98" stop-color="#d1dad6"/>
      <stop offset="1" stop-color="#d5deda"/>
    </linearGradient>
    <linearGradient id="c" x1="729.73" y1="-70.34" x2="729.73" y2="59.99" xlink:href="#b"/>
  </defs>
  <g isolation="isolate">
    <g id="a" data-name="Layer 2">
      <g>
        <path d="m703.75,290.88c-23.07,35.16-140.01,36.68-167.49,36.54-.57,0-1.1,0-1.6-.01-2.7-.02-4.19-.05-4.19-.05v.11s-1.65.04-4.63.06c-1.22,0-2.67,0-4.32,0h-.02c-1.75,0-3.72,0-5.89-.03-.68,0-1.37-.01-2.09-.02-.16,0-.32,0-.48-.01-.85-.01-1.74-.02-2.64-.04-.54-.01-1.09-.02-1.64-.03-1.11-.02-2.25-.04-3.43-.07-2.94-.07-6.08-.16-9.39-.28h-.02c-45.18-1.65-120.68-8.57-138.73-36.07-1.96-2.98-2.6-12.53-1.51-26.1.19-2.36.43-4.84.73-7.44.01-.05.01-.11.02-.16.03-.18.05-.37.07-.57.12-1.12.27-2.26.42-3.42.05-.34.09-.69.14-1.04.01-.05.02-.09.02-.13.03-.21.06-.43.09-.65.14-1.03.29-2.09.46-3.15.01-.08.02-.15.03-.23.03-.22.06-.45.1-.67.21-1.37.43-2.76.67-4.18.01-.03.01-.06.02-.09.01-.07.03-.15.04-.23.01-.05.02-.11.03-.18.03-.15.06-.31.08-.47.05-.28.1-.56.15-.84.05-.32.11-.64.17-.96.08-.47.16-.94.25-1.42.22-1.28.47-2.57.73-3.87.04-.18.07-.36.11-.54.02-.16.06-.32.1-.48.05-.25.1-.51.15-.77.07-.32.13-.65.2-.99.08-.38.16-.77.24-1.16.31-1.51.64-3.04.99-4.59.76-3.41,1.59-6.9,2.5-10.44.12-.47.24-.93.37-1.4.18-.7.37-1.41.56-2.12.38-1.41.77-2.84,1.17-4.27.02-.07.04-.14.06-.22h0c.64-2.26,1.31-4.53,2.01-6.82.25-.83.51-1.65.77-2.48.26-.83.53-1.66.8-2.49.46-1.42.93-2.84,1.42-4.27.37-1.1.75-2.2,1.14-3.3.01-.05.03-.09.05-.13.17-.5.35-1,.53-1.5.47-1.32.95-2.63,1.45-3.95.39-1.07.8-2.15,1.22-3.23.57-1.47,1.15-2.94,1.75-4.41.2-.49.4-.98.6-1.48.56-1.36,1.14-2.72,1.72-4.07.52-1.21,1.05-2.42,1.59-3.62.91-2.06,1.86-4.11,2.84-6.14.55-1.16,1.12-2.33,1.69-3.48.5-1.01,1-2,1.51-3,.73-1.42,1.48-2.85,2.24-4.26.56-1.02,1.11-2.04,1.68-3.05,2.17-3.9,4.46-7.74,6.86-11.49.71-1.11,1.43-2.22,2.16-3.32.2-.3.39-.6.59-.89,1.57-2.36,3.17-4.69,4.79-6.99.66-.94,1.33-1.87,2-2.79,1.1-1.52,2.21-3.03,3.33-4.52.87-1.16,1.75-2.31,2.64-3.45.8-1.03,1.61-2.06,2.42-3.08,1.03-1.29,2.06-2.56,3.11-3.82.66-.8,1.32-1.59,1.99-2.38.67-.79,1.34-1.57,2.01-2.35.67-.78,1.35-1.56,2.02-2.32,1.36-1.54,2.73-3.06,4.11-4.55.69-.75,1.38-1.49,2.07-2.22,1.39-1.48,2.79-2.92,4.2-4.35.7-.71,1.41-1.42,2.12-2.12.71-.71,1.42-1.4,2.13-2.09,1.43-1.39,2.86-2.74,4.3-4.06.72-.67,1.44-1.33,2.17-1.98,2.18-1.96,4.36-3.86,6.56-5.69.97-.81,1.95-1.61,2.93-2.4.64-.52,1.29-1.03,1.94-1.54.28-.22.56-.45.85-.66.08-.06.16-.13.24-.19.98-.76,1.96-1.5,2.95-2.23,1.9-1.42,3.8-2.82,5.71-4.14,1.3-.91,2.61-1.79,3.92-2.65s2.62-1.7,3.93-2.51c.66-.41,1.32-.81,1.97-1.2.72-.44,1.45-.87,2.17-1.28,1.9-1.11,3.81-2.16,5.71-3.16.65-.34,1.31-.68,1.97-1.01.52-.26,1.03-.52,1.55-.77.51-.26,1.03-.5,1.55-.75.49-.23.98-.46,1.47-.68,1.02-.47,2.04-.93,3.06-1.36.45-.2.91-.39,1.36-.57.37-.16.75-.31,1.12-.46,5.26-2.12,10.48-3.79,15.63-4.97.68-.16,1.36-.3,2.03-.44.44-.09.88-.18,1.32-.26h0c1.37-.27,2.74-.49,4.1-.68.54-.08,1.07-.14,1.6-.21.56-.06,1.12-.12,1.67-.17.46-.05.93-.09,1.39-.12.12,0,.24-.02.35-.02.47-.04.93-.07,1.4-.09.56-.03,1.12-.06,1.68-.07.65-.02,1.3-.03,1.95-.03v-.11c.58,0,1.16,0,1.75.03.06-.01.13,0,.19,0,.32.01.64.02.96.04.12,0,.24,0,.36.01.2.01.4.02.61.03.27.01.54.03.82.05.58.04,1.17.09,1.75.14,1.08.09,2.17.22,3.27.37.54.08,1.09.16,1.64.24,7.9,1.21,16.04,3.66,24.25,7.18,2.1.89,4.2,1.86,6.31,2.9,9.3,4.57,18.65,10.47,27.85,17.45.9.68,1.8,1.37,2.7,2.08.67.53,1.34,1.06,2.01,1.6.09.07.17.14.25.21.94.75,1.87,1.51,2.8,2.29,11.74,9.79,23.12,21.32,33.68,34.1h0c7.48,9.05,14.55,18.72,21.04,28.86,10.32,16.12,18.51,33.81,24.85,51.34,5,13.83,8.85,27.55,11.69,40.29.84,3.72,1.58,7.36,2.24,10.89.19,1.01.37,2.02.55,3.02.04.23.08.46.12.69.07.36.13.72.19,1.08.1.6.2,1.2.3,1.79.1.7.22,1.38.33,2.06.06.37.13.76.18,1.13.01.03.01.07.02.11.16,1.01.31,2.01.44,3,.07.51.14,1.02.21,1.53.01.06.01.11.02.16.07.47.13.93.19,1.4.06.48.13.96.18,1.43.06.42.11.84.16,1.26.01.08.02.15.03.22.01.16.03.32.05.48.02.18.04.36.06.54.02.14.03.27.05.4.11.96.21,1.9.3,2.82.15,1.45.28,2.85.39,4.22,1.09,13.57.45,23.12-1.51,26.1Z" fill="#b26d02"/>
        <path d="m448.9,75.62c5.73,26.88,28.25,142.25-1.24,167.11-14.76,12.44-68.86-5.11-86.96-11.48-1.63,7.84-2.89,15.26-3.78,22.04,20.43,6.49,89.14,26.57,108.68,10.11,37.77-31.84,11.94-177.99,6.66-205.59-7.88,5.12-15.7,11.1-23.36,17.8Z" fill="#e0d181" mix-blend-mode="multiply"/>
        <path d="m452.95,72.07s33.44,147.72,0,176.52c-17.8,15.33-92.93-13.94-92.93-13.94-1.62,8.2-2.81,15.88-3.6,22.8,0,0,91.44,32.1,114.47,12.26,41.76-35.96,5.78-214.65,5.78-214.65-7.97,4.84-15.92,10.52-23.71,17.02Z" fill="#ffa61d"/>
        <path d="m605.98,251.71c-30.58-27.01-7.74-151.46-1.47-182.51-8.2-6.57-16.54-12.28-24.89-16.98-6.62,37.29-30.66,188.38,7.58,222.16,22.05,19.48,103.95-7.66,117.8-12.45-.68-7.27-1.83-15.54-3.52-24.5-11.72,4.51-78.52,29.28-95.51,14.27Z" fill="#e0d181" mix-blend-mode="multiply"/>
        <path d="m704.52,257.34s-91.43,32.09-114.47,12.26c-41.57-35.8-6.09-213.06-5.77-214.65h0s.03.01.04.02c1.56.95,3.13,1.93,4.69,2.96,5.35,3.46,10.67,7.31,15.93,11.53.09.07.17.14.25.21.94.75,1.87,1.51,2.8,2.29,0,0-33.44,147.72,0,176.52,17.8,15.33,92.93-13.94,92.93-13.94.19.97.38,1.94.56,2.9.58,3.08,1.09,6.08,1.55,8.98.15.95.29,1.9.43,2.83.13.88.25,1.74.37,2.6.01.06.01.11.02.16.13.91.24,1.81.35,2.7.01.04.02.09.02.13.11.84.21,1.68.3,2.5Z" fill="#ffa61d"/>
        <path d="m652.96,304.55s-78.74,20.45-131.44,22.99h-.02c-1.75,0-3.72,0-5.89-.03-.68,0-1.38-.01-2.09-.02-.16,0-.32,0-.48-.01-.85-.01-1.74-.02-2.64-.04-.54-.01-1.09-.02-1.64-.03-1.11-.02-2.26-.04-3.43-.07-2.94-.07-6.08-.16-9.39-.28h-.02c-51.47-4.3-142.16-23.39-140.23-62.17.19-2.36.43-4.85.73-7.44.01-.05.01-.1.01-.16.03-.18.05-.37.07-.57.12-1.02.25-2.07.39-3.12,0-.1.03-.2.04-.3.05-.39.1-.78.15-1.17.03-.21.06-.43.09-.65.1-.7.2-1.4.31-2.12.05-.34.1-.69.15-1.03.01-.08.02-.15.03-.23.08-.52.16-1.04.25-1.57h0c.09-.62.19-1.23.29-1.84.05-.34.11-.69.17-1.04.03-.16.06-.33.08-.49.01-.07.03-.15.04-.23.01-.05.02-.11.03-.18.03-.15.06-.31.08-.47.05-.28.1-.56.15-.84.05-.32.11-.64.17-.96.08-.47.16-.94.25-1.42.09-.45.17-.91.26-1.36.04-.21.08-.43.12-.65.05-.28.1-.56.16-.84.06-.34.13-.68.19-1.02.04-.18.07-.36.11-.54.08-.41.16-.83.25-1.25.07-.32.13-.65.2-.99.08-.38.16-.77.24-1.16.31-1.51.64-3.04.99-4.59.76-3.41,1.59-6.9,2.5-10.44.12-.47.24-.93.37-1.4.18-.7.37-1.41.56-2.12.38-1.41.77-2.84,1.17-4.27.02-.07.04-.14.06-.22h0c.64-2.26,1.31-4.53,2.01-6.82.25-.83.51-1.65.77-2.48.26-.83.53-1.66.8-2.49.46-1.42.93-2.84,1.42-4.27.37-1.1.75-2.2,1.14-3.3.01-.05.03-.09.05-.13.17-.5.35-1,.53-1.5.47-1.32.95-2.63,1.45-3.95.39-1.07.8-2.15,1.22-3.23.57-1.47,1.15-2.94,1.75-4.41.2-.49.4-.98.6-1.48.56-1.36,1.14-2.72,1.72-4.07.52-1.21,1.05-2.42,1.59-3.62.91-2.06,1.86-4.11,2.84-6.14.55-1.16,1.12-2.33,1.69-3.48.5-1.01,1-2,1.51-3,.73-1.42,1.48-2.85,2.24-4.26.56-1.02,1.11-2.04,1.68-3.05,2.17-3.9,4.46-7.74,6.86-11.49.71-1.11,1.43-2.22,2.16-3.32.2-.3.39-.6.59-.89,1.57-2.36,3.16-4.69,4.79-6.99.66-.94,1.33-1.87,2-2.79,1.1-1.52,2.21-3.03,3.33-4.52.87-1.16,1.75-2.31,2.64-3.45.8-1.03,1.61-2.06,2.42-3.08,1.03-1.29,2.06-2.56,3.11-3.82.66-.8,1.32-1.59,1.99-2.38.67-.79,1.34-1.57,2.01-2.35.67-.78,1.35-1.56,2.02-2.32,1.36-1.54,2.73-3.06,4.11-4.55.69-.75,1.38-1.49,2.07-2.22,1.39-1.48,2.79-2.92,4.2-4.35.7-.71,1.41-1.42,2.12-2.12.71-.71,1.42-1.4,2.13-2.09,1.43-1.39,2.86-2.74,4.3-4.06.72-.67,1.44-1.33,2.17-1.98,2.18-1.96,4.36-3.86,6.56-5.69.97-.81,1.95-1.61,2.93-2.4.64-.52,1.29-1.03,1.94-1.54.28-.22.56-.45.85-.66.08-.06.16-.13.24-.19.88-.68,1.76-1.35,2.64-2.01.51-.38,1.02-.77,1.53-1.15,1.49-1.1,2.99-2.17,4.48-3.21,1.3-.92,2.61-1.8,3.92-2.65,1.31-.87,2.62-1.71,3.93-2.51.66-.41,1.32-.81,1.97-1.2.72-.44,1.45-.87,2.17-1.28,1.9-1.11,3.81-2.16,5.71-3.16.65-.34,1.31-.68,1.97-1.01.52-.26,1.03-.52,1.55-.77.51-.26,1.03-.5,1.55-.75.49-.23.98-.46,1.47-.68,1.02-.47,2.04-.93,3.06-1.36.45-.2.91-.39,1.36-.57.37-.16.75-.31,1.12-.46,5.26-2.12,10.48-3.79,15.63-4.97.68-.16,1.36-.31,2.03-.44.44-.09.88-.18,1.32-.26h0c1.37-.27,2.74-.49,4.1-.68.54-.08,1.07-.14,1.6-.21.56-.06,1.12-.12,1.67-.17.46-.05.93-.09,1.39-.12.12,0,.24-.02.35-.02.47-.04.93-.07,1.4-.09.56-.03,1.12-.06,1.68-.07.65-.02,1.3-.03,1.95-.03v-.11c.58,0,1.16,0,1.75.03.06-.01.13,0,.19,0,.32.01.64.02.96.04.12,0,.24,0,.36.01.16.01.32.01.48.03.32.01.63.03.95.05.58.04,1.17.09,1.75.14,1.09.1,2.17.22,3.27.37.54.08,1.09.16,1.64.24,7.88,1.23,15.99,3.69,24.19,7.21,2.11.9,4.22,1.88,6.34,2.92,2.42,1.19,4.85,2.47,7.27,3.84.66.37,1.33.75,1.99,1.14.38.22.76.44,1.14.67.51.29,1.01.6,1.52.91-.15-.01-1.96-.06-5.17.23-9.96.92-33.36,5.23-62.03,25.03-10,6.91-20.79,19.56-31,35.11-1.4,2.12-2.79,4.3-4.16,6.53-5.73,9.32-11.22,19.46-16.2,29.87-1.43,3-2.82,6.03-4.16,9.06-14.17,32.02-22.99,65.25-19.3,84.79.46,2.48,1.13,4.74,2.01,6.74h0c2.22,5.04,8.13,9.71,16.63,14.01,2.78,1.4,5.83,2.77,9.12,4.1,39.02,15.75,111.44,26.03,152.49,30.89h.01c18.37,2.17,30.45,3.25,30.45,3.25Z" fill="#e0d181" mix-blend-mode="multiply"/>
        <path d="m525,100.81c-8.04,0-14.57,6.52-14.57,14.57s6.52,14.57,14.57,14.57,14.57-6.52,14.57-14.57-6.52-14.57-14.57-14.57Z" fill="#e0d181" mix-blend-mode="multiply"/>
        <path d="m524.08,159.17c-8.04,0-14.57,6.52-14.57,14.57s6.52,14.57,14.57,14.57,14.57-6.52,14.57-14.57-6.52-14.57-14.57-14.57Z" fill="#e0d181" mix-blend-mode="multiply"/>
        <path d="m523.17,217.54c-8.04,0-14.57,6.52-14.57,14.57s6.52,14.57,14.57,14.57,14.57-6.52,14.57-14.57-6.52-14.57-14.57-14.57Z" fill="#e0d181" mix-blend-mode="multiply"/>
        <path d="m530.47,100.81c-8.04,0-14.57,6.52-14.57,14.57s6.52,14.57,14.57,14.57,14.57-6.52,14.57-14.57-6.52-14.57-14.57-14.57Z" fill="#ffa61d"/>
        <path d="m529.56,159.17c-8.04,0-14.57,6.52-14.57,14.57s6.52,14.57,14.57,14.57,14.57-6.52,14.57-14.57-6.52-14.57-14.57-14.57Z" fill="#ffa61d"/>
        <path d="m528.64,217.54c-8.04,0-14.57,6.52-14.57,14.57s6.52,14.57,14.57,14.57,14.57-6.52,14.57-14.57-6.52-14.57-14.57-14.57Z" fill="#ffa61d"/>
        <path d="m705.25,264.78c-.35,2.37-.85,4.13-1.5,5.13-26.18,39.9-173.28,36.48-173.28,36.48v.11s-147.1,3.42-173.28-36.48c-.65-1-1.15-2.75-1.5-5.13-7.48,1.02-10.69,15.42-5.11,24.96,24.08,41.2,179.89,37.62,179.89,37.62v-.11s155.81,3.58,179.89-37.62c5.58-9.54,2.36-23.94-5.11-24.96Z" fill="#ffa61d"/>
        <path d="m566.08,45.46h-35.61v.11h-35.61s0-.01.01-.03c.04-.17.32-1.25.79-3.05.06-.21.12-.44.18-.68.24-.93.53-2.01.85-3.23.06-.22.12-.45.18-.68.04-.15.08-.3.12-.45.34-1.31.73-2.75,1.15-4.31.1-.41.21-.82.33-1.25.03-.11.06-.23.09-.34.13-.49.27-1,.41-1.51.15-.59.32-1.19.48-1.8.11-.41.22-.82.34-1.24.62-2.28,1.28-4.72,1.98-7.28.1-.35.2-.7.3-1.05.32-1.18.66-2.39,1-3.62.26-.96.54-1.93.81-2.92.04-.14.08-.28.12-.42.19-.68.38-1.37.58-2.06.46-1.65.93-3.32,1.41-5,.33-1.12.65-2.25.98-3.39.12-.42.24-.84.36-1.26h46.31c4.31,14.93,8.11,29.02,10.34,37.45,1.26,4.73,2.01,7.68,2.09,7.98.01.02.01.03.01.03Z" fill="#d5deda"/>
        <path d="m403.61,173.62c-16.1,30.54-31.62,45.09-38.38,50.46-.03.02-.05.04-.07.06-.48.39-.93.73-1.32,1.02-.49.37-.9.66-1.23.89-.13.09-.24.16-.34.23-.38.26-.58.38-.58.38,0,0-96.4-49.43-115.55-171.64-3.07-19.56-4.24-37.94-4-55.02h54.87c5.88,26.71,16,53.34,33.03,69.62,38.52,36.8,83.81,36.71,89.23,36.56.36-.01.54-.02.54-.02,0,0,4.88,27.48-16.2,67.46Z" fill="url(#b)"/>
        <path d="m814.8,54.91c-19.15,122.21-115.55,171.64-115.55,171.64,0,0-14.56-8.75-32-35.98-.04-.07-.09-.14-.13-.21-.53-.81-1.05-1.64-1.57-2.48-.3-.48-.6-.97-.9-1.46-1.21-1.99-2.43-4.06-3.67-6.23-.54-.96-1.09-1.94-1.64-2.94-.11-.21-.23-.42-.34-.63-.56-1.02-1.11-2.05-1.67-3.11-20.83-39.48-16.33-66.78-16.21-67.46,0,0,.19.01.55.02,1.5.04,6.05.08,12.67-.68,1.18-.13,2.43-.29,3.74-.48.39-.05.78-.11,1.18-.17.79-.12,1.59-.26,2.42-.39.42-.08.86-.16,1.3-.24.43-.07.85-.15,1.29-.24,1.75-.34,3.57-.73,5.46-1.18.93-.21,1.88-.45,2.85-.7,0,0,.01-.01.02-.01.96-.26,1.94-.52,2.94-.8,10.01-2.86,21.38-7.35,32.93-14.42,1.15-.7,2.31-1.43,3.46-2.18,0-.01.01-.01.01-.01,1.16-.75,2.31-1.54,3.47-2.35,1.41-.99,2.82-2.02,4.22-3.09.65-.5,1.29-1,1.94-1.52,3.13-2.47,6.25-5.17,9.32-8.11,17.01-16.25,27.12-42.83,33-69.5h54.9c.24,17.05-.93,35.4-3.99,54.91Z" fill="url(#c)"/>
        <path d="m519.37,0c-1.36,14.91-2.38,28.99-2.95,37.45-.03.48-.06.94-.09,1.38h0c-.28,4.24-.43,6.74-.43,6.74h-21.04s0-.01.01-.03c.04-.17.32-1.25.79-3.05.06-.21.12-.44.18-.68.24-.93.53-2.01.85-3.23.06-.22.12-.45.18-.68.04-.15.08-.3.12-.45.34-1.31.73-2.75,1.15-4.31.1-.41.21-.82.33-1.25.03-.11.06-.23.09-.34.13-.49.27-1,.41-1.51.15-.59.32-1.19.48-1.8.11-.41.22-.82.34-1.24.62-2.28,1.28-4.72,1.98-7.28.1-.35.2-.7.3-1.05.32-1.18.66-2.39,1-3.62.26-.96.54-1.93.81-2.92.04-.14.08-.28.12-.42.19-.68.38-1.37.58-2.06.46-1.65.93-3.32,1.41-5,.33-1.12.65-2.25.98-3.39.12-.42.24-.84.36-1.26h12.04Z" fill="#f1eff2" mix-blend-mode="multiply"/>
        <path d="m573.33,44.75c0,1.3-.34,2.52-.95,3.58,0,.02-.02.04-.03.05-1.26,2.19-3.62,3.67-6.31,3.67h-72.96c-2.39,0-4.52-1.16-5.84-2.95-.92-1.21-1.46-2.72-1.46-4.35,0-4.01,3.28-7.3,7.3-7.3h72.96c4.01,0,7.29,3.29,7.29,7.3Z" fill="#ffa61d"/>
        <path d="m375.8,214.11c-6.45,6.94-11.26,10.59-13.19,11.94-.13.09-.24.16-.34.23-.38.26-.58.38-.58.38,0,0-96.4-49.43-115.55-171.64-3.07-19.56-4.24-37.94-4-55.02h16.6c.3,13.84,1.54,28.47,3.95,43.82,14.99,95.64,77.28,146.7,103.66,164.39h0c4.14,2.78,7.39,4.73,9.44,5.9Z" fill="#f1eff2" mix-blend-mode="multiply"/>
        <path d="m784.05,0c-.64,9.46-1.72,19.26-3.3,29.37-13.25,84.58-63.5,134.3-93.19,156.89-6.44,4.9-11.92,8.53-15.84,10.96-1.46-2.09-2.95-4.3-4.47-6.65-.04-.07-.09-.14-.13-.21-.52-.81-1.04-1.64-1.57-2.48-.3-.48-.6-.97-.9-1.46-1.21-1.99-2.43-4.06-3.67-6.23-.54-.96-1.09-1.94-1.64-2.94-.11-.21-.23-.42-.34-.63-.56-1.02-1.11-2.05-1.67-3.11-20.83-39.48-16.33-66.78-16.21-67.46h0s.19,0,.55.01c1.52.04,6.07.08,12.67-.67,1.18-.13,2.43-.29,3.74-.48.39-.05.78-.11,1.18-.17.79-.12,1.59-.26,2.42-.39.42-.08.86-.16,1.3-.24.42-.08.86-.16,1.29-.24,1.75-.34,3.57-.73,5.46-1.18.93-.22,1.88-.46,2.85-.7,0,0,.01-.01.02-.01.96-.26,1.94-.52,2.94-.8,10.01-2.86,21.38-7.35,32.93-14.42,1.15-.7,2.31-1.43,3.46-2.18,0-.01.01-.01.01-.01,1.16-.76,2.31-1.54,3.47-2.35,1.41-.99,2.82-2.02,4.22-3.09.65-.5,1.29-1,1.94-1.52,3.13-2.47,6.25-5.17,9.32-8.11,17.01-16.25,27.12-42.83,33-69.5h20.16Z" fill="#f1eff2" mix-blend-mode="multiply"/>
      </g>
    </g>
  </g>
</svg>