<?xml version="1.0" encoding="UTF-8"?>
<svg id="a" data-name="Layer 2" xmlns="http://www.w3.org/2000/svg" viewBox="0 0 1080 1080">
  <path d="m539.97,559.84c-14.84,18.82-34.23,20.67-55.65,21.41-21.51.74-43.99,3.6-63.98,11.05-29.24,10.89-37.6,34.15-28.14,63.83,1.44,4.53,2.97,9.02,4.94,15.03-52.12-34.66-56.64-89.84-11.37-128.32,34.13-29.01,74.39-40.19,118.55-34.57,12,1.53,23.29,8.62,36.38,13.73,44.89-30.59,115.66-13.37,156.22,22.74,42.25,37.61,37.03,93.79-13.6,125.93,2.03-6.23,3.54-10.59,4.87-15,9.25-30.85-.3-53.88-30.62-64.53-18.29-6.42-38.51-9.83-57.9-9.95-22.88-.14-43.72-1.71-59.7-21.35Z" fill="#333"/>
</svg>