<?xml version="1.0" encoding="UTF-8"?>
<svg id="a" data-name="Layer 2" xmlns="http://www.w3.org/2000/svg" viewBox="0 0 1080 1080">
  <path d="m611.72,590.66c-4.59-2.32-8.09-3.95-11.46-5.82-18.64-10.37-38.67-14.07-59.81-12.77-3.56.22-7.16,0-10.74-.11-21.62-.65-29.75-12.36-22.24-33.07,1.28-3.52,5.35-7.05,8.96-8.53,35.32-14.48,88.89,15.59,95.24,53.18.31,1.83.04,3.75.04,7.12Z" fill="#333"/>
  <path d="m385.1,587.84c3.3-8.61,5.4-17.83,10.05-25.5,14.87-24.59,53.32-39.96,81.49-33.57,13.34,3.03,16.2,8.01,15.99,24.73-.15,11.96-6.02,17.48-17.42,18.05-5.56.28-11.16.86-16.7.49-23.33-1.54-45.05,3.42-65.19,15.33-1.32.78-2.89,1.17-4.37,1.65-.31.1-.75-.21-3.84-1.17Z" fill="#333"/>
</svg>