<?xml version="1.0" encoding="UTF-8"?>
<svg id="a" data-name="Layer 2" xmlns="http://www.w3.org/2000/svg" viewBox="0 0 1080 1080">
  <path d="m725.12,610.83c-7.5-3.8-13.23-6.45-18.73-9.51-30.47-16.95-63.21-23-97.76-20.87-5.83.36-11.71,0-17.56-.18-35.34-1.07-48.62-20.21-36.35-54.06,2.08-5.75,8.74-11.52,14.65-13.94,57.72-23.66,145.3,25.48,155.68,86.93.5,2.98.06,6.13.06,11.64Z" fill="#333"/>
  <path d="m354.7,606.22c5.4-14.08,8.83-29.14,16.42-41.69,24.31-40.2,87.15-65.32,133.19-54.88,21.8,4.95,26.48,13.09,26.14,40.42-.25,19.55-9.84,28.57-28.48,29.51-9.09.46-18.25,1.4-27.29.81-38.14-2.52-73.63,5.6-106.55,25.06-2.16,1.28-4.72,1.91-7.15,2.69-.51.16-1.23-.34-6.28-1.92Z" fill="#333"/>
</svg>