<?xml version="1.0" encoding="UTF-8"?>
<svg id="a" data-name="Layer 2" xmlns="http://www.w3.org/2000/svg" viewBox="0 0 1080 1080">
  <path d="m498.45,549.85c-9.41,11.94-21.72,13.11-35.3,13.58-13.65.47-27.91,2.29-40.59,7.01-18.55,6.91-23.85,21.66-17.85,40.5.92,2.87,1.88,5.73,3.14,9.53-33.06-21.99-35.94-57-7.21-81.41,21.65-18.4,47.19-25.5,75.21-21.93,7.61.97,14.78,5.47,23.08,8.71,28.48-19.41,73.38-8.48,99.11,14.43,26.8,23.86,23.49,59.5-8.63,79.9,1.29-3.95,2.25-6.72,3.09-9.52,5.87-19.57-.19-34.19-19.43-40.94-11.6-4.07-24.43-6.24-36.73-6.31-14.52-.09-27.74-1.09-37.87-13.55Z" fill="#333"/>
</svg>