<?xml version="1.0" encoding="UTF-8"?>
<svg id="a" data-name="Layer 2" xmlns="http://www.w3.org/2000/svg" viewBox="0 0 1080 1080">
  <path d="m498.41,563.28c-27.48,25.63-72.05,30.26-104.03,11.26-14.69-8.73-22.9-22.89-22.31-41.07,2.67,19.2,13.33,28.61,29.11,32.32,17.07,4.01,32.82,1.32,45.47-12.03,3.35-3.54,6.19-7.57,9.61-11.03,14.45-14.65,26.58-15.31,42.09-2.46,15.46-13.67,30.16-12.24,44.74,6.03,9.2,11.52,19.84,18.96,34.49,20.92,23.98,3.2,43.16-10.52,47.21-34.09,1.05,14.83-5.36,28.42-17.95,38.09-29.35,22.54-81.99,18.88-108.44-7.95Z" fill="#333"/>
</svg>